<?xml version="1.0" encoding="utf-8"?>
<svg version="1.1" id="Layer_1" xmlns="http://www.w3.org/2000/svg" xmlns:xlink="http://www.w3.org/1999/xlink" x="0px" y="0px"
	 viewBox="0 0 19.84 19.84" style="enable-background:new 0 0 19.84 19.84;" xml:space="preserve">
<style type="text/css">
	.st0{clip-path:url(#SVGID_00000026866442987076662840000013551846561688408480_);}
</style>
<g>
	<defs>
		<rect id="SVGID_1_" width="19.84" height="19.84"/>
	</defs>
	<clipPath id="SVGID_00000141431643365334012080000008757512670049712038_">
		<use xlink:href="#SVGID_1_"  style="overflow:visible;"/>
	</clipPath>
	<path style="clip-path:url(#SVGID_00000141431643365334012080000008757512670049712038_);" d="M9.92,0C4.44,0,0,4.44,0,9.92
		c0,5.48,4.44,9.92,9.92,9.92c5.48,0,9.92-4.44,9.92-9.92C19.84,4.44,15.4,0,9.92,0 M18.9,8.95h-0.89
		c-0.44-3.72-3.39-6.67-7.11-7.11V0.94C15.1,1.39,18.45,4.74,18.9,8.95 M17.64,10.89c-0.44,3.52-3.23,6.31-6.74,6.74v-1.8H8.95v1.8
		c-3.52-0.44-6.3-3.23-6.74-6.75H4V8.95H2.2C2.64,5.43,5.43,2.64,8.95,2.2V4h1.95V2.2c3.52,0.44,6.3,3.23,6.74,6.74h-1.8v1.95H17.64
		z M8.95,0.94v0.89C5.23,2.28,2.28,5.23,1.84,8.95H0.94C1.39,4.74,4.74,1.39,8.95,0.94 M0.94,10.89h0.9
		c0.44,3.72,3.39,6.67,7.11,7.11v0.89C4.74,18.45,1.39,15.11,0.94,10.89 M10.89,18.9v-0.89c3.72-0.44,6.67-3.39,7.11-7.11h0.89
		C18.45,15.1,15.1,18.45,10.89,18.9"/>
	<path style="clip-path:url(#SVGID_00000141431643365334012080000008757512670049712038_);" d="M9.92,8.62
		c-0.72,0-1.31,0.58-1.31,1.31s0.58,1.3,1.31,1.3c0.72,0,1.3-0.58,1.3-1.3S10.64,8.62,9.92,8.62"/>
</g>
</svg>
