<?xml version="1.0" encoding="utf-8"?>
<svg version="1.1" id="Layer_1" xmlns="http://www.w3.org/2000/svg" xmlns:xlink="http://www.w3.org/1999/xlink" x="0px" y="0px"
	 viewBox="0 0 19.84 19.84" style="enable-background:new 0 0 19.84 19.84;" xml:space="preserve">
<style type="text/css">
	.st0{clip-path:url(#SVGID_00000010309126856129100460000018062252926624093599_);}
</style>
<g>
	<defs>
		<rect id="SVGID_1_" width="19.84" height="19.84"/>
	</defs>
	<clipPath id="SVGID_00000128458271798491999540000005584486046112978565_">
		<use xlink:href="#SVGID_1_"  style="overflow:visible;"/>
	</clipPath>
	<path style="clip-path:url(#SVGID_00000128458271798491999540000005584486046112978565_);" d="M16.22,10.05
		c0.13,0.34,0.2,0.54,0.29,0.73c0.1,0.22,0.24,0.42,0.55,0.82c0.05,0.07,0.16,0.03,0.16-0.05c0.04-0.59,0.18-1.18,0.33-1.76
		c0.18-0.66,0.37-1.32,0.45-1.99c0.32-2.27-0.66-4.24-2.23-5.62C14.21,0.79,12.02-0.02,9.92,0C9.89,0,9.86,0,9.83,0
		C7.75,0,5.61,0.81,4.06,2.18C2.48,3.56,1.51,5.52,1.83,7.8C1.91,8.47,2.1,9.13,2.28,9.79c0.15,0.58,0.29,1.16,0.33,1.76
		c0.01,0.09,0.11,0.12,0.17,0.05c0.31-0.39,0.45-0.6,0.55-0.82c0.09-0.19,0.16-0.39,0.29-0.73C3.66,9.95,3.8,9.98,3.8,10.08
		c0.06,1.12-0.49,1.95-0.97,2.66c-0.53,0.8-0.95,1.46-0.33,2.23c0.19,0.29,0.64,0.72,1.3,1.09c0.64,0.36,1.48,0.65,2.44,0.68
		c0.03,0,0.06,0.01,0.07,0.04c0.19,0.27,0.18,0.6,0.16,0.94c-0.02,0.35-0.05,0.7,0.1,1c0.06,0.12,0.5,0.34,1.02,0.55
		c0.1,0.04,0.21-0.01,0.25-0.11l0.11-0.31c0.03-0.1,0.17-0.1,0.2,0l0.22,0.63c0.02,0.06,0.06,0.1,0.12,0.12
		c0.44,0.14,0.83,0.24,1.03,0.25c0.04,0,0.08-0.03,0.09-0.07c0.05-0.16,0.1-0.32,0.15-0.47c0.02-0.08,0.05-0.16,0.07-0.24
		c0.03-0.09,0.15-0.09,0.18,0c0.02,0.08,0.05,0.16,0.07,0.24c0.05,0.16,0.1,0.32,0.15,0.47c0.01,0.04,0.05,0.07,0.09,0.07
		c0.19-0.01,0.59-0.11,1.02-0.25c0.06-0.02,0.1-0.06,0.12-0.12l0.22-0.63c0.03-0.1,0.17-0.1,0.2,0l0.11,0.31
		c0.03,0.1,0.15,0.15,0.25,0.11c0.52-0.21,0.96-0.43,1.03-0.55c0.16-0.3,0.12-0.65,0.1-1c-0.02-0.33-0.02-0.66,0.16-0.94
		c0.02-0.02,0.04-0.04,0.07-0.04c0.96-0.03,1.8-0.32,2.44-0.68c0.65-0.36,1.11-0.79,1.3-1.09c0.62-0.78,0.19-1.44-0.33-2.23
		c-0.47-0.72-1.03-1.54-0.97-2.66C16.05,9.98,16.18,9.95,16.22,10.05 M8.6,13.5c-0.73,0.88-4.04,1.73-4.05-0.02
		c-0.04-0.44-0.03-1.16-0.02-1.61c0,0,0-0.01,0-0.01c0.21-1.8,2.72-1.19,3.86-0.71C9.45,11.47,9.19,12.86,8.6,13.5 M9.96,16.61
		c-0.26,0-0.77-0.52-0.77-1.16c0-0.64,0.77-1.16,0.77-1.16s0.77,0.52,0.77,1.16C10.72,16.09,10.22,16.61,9.96,16.61 M15.29,13.48
		c-0.01,1.75-3.32,0.9-4.05,0.02c-0.59-0.64-0.85-2.03,0.2-2.35c1.14-0.48,3.66-1.09,3.87,0.71c0,0,0,0.01,0,0.01
		C15.32,12.32,15.33,13.03,15.29,13.48"/>
</g>
</svg>
