<?xml version="1.0" encoding="utf-8"?>
<svg version="1.1" id="Layer_1" xmlns="http://www.w3.org/2000/svg" xmlns:xlink="http://www.w3.org/1999/xlink" x="0px" y="0px"
	 viewBox="0 0 19.84 19.84" style="enable-background:new 0 0 19.84 19.84;" xml:space="preserve">
<style type="text/css">
	.st0{clip-path:url(#SVGID_00000003082203461753484050000011595878239912604334_);fill:#D02036;}
	.st1{clip-path:url(#SVGID_00000003082203461753484050000011595878239912604334_);}
	.st2{clip-path:url(#SVGID_00000068675164202958763840000014375160519574773392_);fill:#FFFFFF;}
	.st3{clip-path:url(#SVGID_00000106825821685873269930000018346725675616009638_);}
	.st4{clip-path:url(#SVGID_00000106825821685873269930000018346725675616009638_);fill:#FFFFFF;}
</style>
<g>
	<defs>
		<rect id="SVGID_1_" width="19.84" height="19.84"/>
	</defs>
	<clipPath id="SVGID_00000090989042767537319750000015116561689164377739_">
		<use xlink:href="#SVGID_1_"  style="overflow:visible;"/>
	</clipPath>
	<path style="clip-path:url(#SVGID_00000090989042767537319750000015116561689164377739_);fill:#D02036;" d="M11.91,9.92
		c0,0.74-0.4,1.38-0.99,1.72c-0.29,0.17-0.63,0.27-0.99,0.27c-0.36,0-0.7-0.1-0.99-0.27c-0.59-0.34-0.99-0.98-0.99-1.72
		c0-0.73,0.4-1.38,0.99-1.72c0.29-0.17,0.63-0.27,0.99-0.27c0.36,0,0.7,0.1,0.99,0.27C11.5,8.55,11.91,9.19,11.91,9.92"/>
	<path style="clip-path:url(#SVGID_00000090989042767537319750000015116561689164377739_);" d="M8.43,12.5l-2.48,4.3
		c-2.37-1.37-3.97-3.94-3.97-6.87h4.96v0C6.94,11.02,7.54,11.98,8.43,12.5"/>
</g>
<g>
	<defs>
		<rect id="SVGID_00000010300596764516718680000001402754363552775084_" x="7.94" y="7.94" width="3.97" height="3.97"/>
	</defs>
	<clipPath id="SVGID_00000047774672147560966980000002581500333852728741_">
		<use xlink:href="#SVGID_00000010300596764516718680000001402754363552775084_"  style="overflow:visible;"/>
	</clipPath>
	<path style="clip-path:url(#SVGID_00000047774672147560966980000002581500333852728741_);fill:#FFFFFF;" d="M11.91,9.92
		c0,0.74-0.4,1.38-0.99,1.72c-0.29,0.17-0.63,0.27-0.99,0.27c-0.36,0-0.7-0.1-0.99-0.27c-0.59-0.34-0.99-0.98-0.99-1.72
		c0-0.73,0.4-1.38,0.99-1.72c0.29-0.17,0.63-0.27,0.99-0.27c0.36,0,0.7,0.1,0.99,0.27C11.5,8.55,11.91,9.19,11.91,9.92"/>
</g>
<g>
	<defs>
		<rect id="SVGID_00000132051369382778682090000012246113245904348078_" width="19.84" height="19.84"/>
	</defs>
	<clipPath id="SVGID_00000065764894747661071330000015942977736777594027_">
		<use xlink:href="#SVGID_00000132051369382778682090000012246113245904348078_"  style="overflow:visible;"/>
	</clipPath>
	<path style="clip-path:url(#SVGID_00000065764894747661071330000015942977736777594027_);" d="M8.44,7.34l-2.48-4.3
		c1.11-0.64,2.4-1.02,3.77-1.06c0.07,0,0.13,0,0.2,0c0.07,0,0.14,0,0.2,0c1.37,0.03,2.65,0.42,3.77,1.06l-2.48,4.3
		c-0.44-0.26-0.94-0.4-1.48-0.4C9.38,6.95,8.87,7.09,8.44,7.34"/>
	<path style="clip-path:url(#SVGID_00000065764894747661071330000015942977736777594027_);" d="M17.86,9.92
		c0,2.94-1.6,5.5-3.97,6.87l-2.48-4.3c0.89-0.51,1.49-1.47,1.49-2.57v0H17.86z"/>
	<path style="clip-path:url(#SVGID_00000065764894747661071330000015942977736777594027_);fill:#FFFFFF;" d="M11.91,9.92
		c0,0.74-0.4,1.38-0.99,1.72c-0.29,0.17-0.63,0.27-0.99,0.27c-0.36,0-0.7-0.1-0.99-0.27c-0.59-0.34-0.99-0.98-0.99-1.72
		c0-0.73,0.4-1.38,0.99-1.72c0.29-0.17,0.63-0.27,0.99-0.27c0.36,0,0.7,0.1,0.99,0.27C11.5,8.55,11.91,9.19,11.91,9.92"/>
	<path style="clip-path:url(#SVGID_00000065764894747661071330000015942977736777594027_);" d="M11.91,9.92
		c0,0.74-0.4,1.38-0.99,1.72c-0.29,0.17-0.63,0.27-0.99,0.27c-0.36,0-0.7-0.1-0.99-0.27c-0.59-0.34-0.99-0.98-0.99-1.72
		c0-0.73,0.4-1.38,0.99-1.72c0.29-0.17,0.63-0.27,0.99-0.27c0.36,0,0.7,0.1,0.99,0.27C11.5,8.55,11.91,9.19,11.91,9.92"/>
	<path style="clip-path:url(#SVGID_00000065764894747661071330000015942977736777594027_);" d="M9.92,1.24
		c1.53,0,3.03,0.4,4.33,1.16l0,0l0,0c1.3,0.75,2.39,1.83,3.15,3.12c0.78,1.33,1.2,2.85,1.2,4.4c0,1.55-0.41,3.07-1.2,4.4
		c-0.76,1.29-1.85,2.37-3.15,3.11l0,0l0,0c-1.31,0.76-2.8,1.16-4.33,1.16c-1.53,0-3.03-0.4-4.34-1.16l0,0l0,0
		c-1.3-0.75-2.39-1.82-3.15-3.11C1.65,13,1.24,11.48,1.24,9.92c0-1.55,0.41-3.07,1.2-4.4c0.76-1.29,1.85-2.37,3.15-3.11l0,0l0,0
		C6.89,1.64,8.39,1.24,9.92,1.24 M9.92,0c-1.8,0-3.5,0.48-4.96,1.33C1.99,3.04,0,6.25,0,9.92c0,3.68,1.99,6.88,4.96,8.59
		c1.46,0.85,3.16,1.33,4.96,1.33c1.8,0,3.5-0.48,4.95-1.33c2.96-1.7,4.97-4.91,4.97-8.59c0-3.67-2-6.88-4.97-8.59
		C13.42,0.48,11.72,0,9.92,0"/>
</g>
</svg>
