<?xml version="1.0" encoding="utf-8"?>
<!-- Generator: Adobe Illustrator 28.2.0, SVG Export Plug-In . SVG Version: 6.00 Build 0)  -->
<svg version="1.1" id="Layer_1" xmlns="http://www.w3.org/2000/svg" xmlns:xlink="http://www.w3.org/1999/xlink" x="0px" y="0px"
	 viewBox="0 0 22.68 22.68" style="enable-background:new 0 0 22.68 22.68;" xml:space="preserve">
<style type="text/css">
	.st0{clip-path:url(#SVGID_00000038395577747646045740000009768073364696916917_);}
</style>
<g>
	<defs>
		<rect id="SVGID_1_" width="22.68" height="22.68"/>
	</defs>
	<clipPath id="SVGID_00000054240856105236395080000011944932875456038562_">
		<use xlink:href="#SVGID_1_"  style="overflow:visible;"/>
	</clipPath>
	<path style="clip-path:url(#SVGID_00000054240856105236395080000011944932875456038562_);" d="M11.87,2.7
		c0,0.29-0.24,0.53-0.53,0.53c-0.29,0-0.53-0.24-0.53-0.53c0-0.29,0.24-0.53,0.53-0.53C11.63,2.17,11.87,2.41,11.87,2.7"/>
	<path style="clip-path:url(#SVGID_00000054240856105236395080000011944932875456038562_);" d="M13.1,0H9.57L8.42,2.67l1.5,7.62
		h2.84l1.5-7.62L13.1,0z M12.2,2.9c-0.06,0.34-0.24,1.01-0.53,1.99c-0.04,0.15-0.18,0.25-0.33,0.25c-0.15,0-0.29-0.1-0.33-0.25
		c-0.29-0.98-0.47-1.65-0.53-1.99c-0.01-0.06-0.02-0.13-0.02-0.2c0-0.49,0.4-0.88,0.89-0.88c0.49,0,0.89,0.4,0.89,0.88
		C12.22,2.77,12.22,2.83,12.2,2.9"/>
	<polygon style="clip-path:url(#SVGID_00000054240856105236395080000011944932875456038562_);" points="17.63,8.02 17.63,9.81 
		15.69,14.88 11.34,15.51 6.99,14.88 5.02,9.74 5.02,8.03 5.88,7.86 5.96,7.84 5.95,7.75 5.3,4.46 6.42,1.87 7.78,1.87 7.45,2.63 
		7.44,2.66 7.45,2.68 9.12,11.21 9.14,11.28 13.55,11.28 13.57,11.21 15.24,2.68 15.24,2.66 15.23,2.63 14.91,1.87 16.27,1.87 
		17.39,4.46 16.74,7.76 16.72,7.84 16.81,7.86 	"/>
	<path style="clip-path:url(#SVGID_00000054240856105236395080000011944932875456038562_);" d="M11.87,2.7
		c0,0.29-0.24,0.53-0.53,0.53c-0.29,0-0.53-0.24-0.53-0.53c0-0.29,0.24-0.53,0.53-0.53C11.63,2.17,11.87,2.41,11.87,2.7"/>
	<path style="clip-path:url(#SVGID_00000054240856105236395080000011944932875456038562_);" d="M4.47,11.27l-1.23,0.01L2.3,10.29
		L0,11.38v3.2l5.79,6.74H8.3L4.47,11.27z M2.38,12.12c-0.05,0.3-0.29,0.54-0.59,0.59c-0.49,0.08-0.91-0.34-0.83-0.84
		c0.05-0.3,0.29-0.54,0.59-0.59C2.04,11.2,2.46,11.62,2.38,12.12"/>
	<polygon style="clip-path:url(#SVGID_00000054240856105236395080000011944932875456038562_);" points="15.35,16.01 12.98,22.21 
		11.34,22.68 9.69,22.21 7.32,16.01 11.34,16.59 	"/>
	<path style="clip-path:url(#SVGID_00000054240856105236395080000011944932875456038562_);" d="M20.38,10.29l-0.94,0.99l-1.23-0.01
		l-3.85,10.05h2.53l5.79-6.74v-3.2L20.38,10.29z M20.89,12.71c-0.3-0.05-0.54-0.29-0.59-0.59c-0.08-0.5,0.34-0.92,0.83-0.84
		c0.3,0.05,0.54,0.29,0.59,0.59C21.8,12.36,21.38,12.79,20.89,12.71"/>
</g>
</svg>
