<?xml version="1.0" encoding="utf-8"?>
<svg version="1.1" id="Layer_1" xmlns="http://www.w3.org/2000/svg" xmlns:xlink="http://www.w3.org/1999/xlink" x="0px" y="0px"
	 viewBox="0 0 22.68 22.68" style="enable-background:new 0 0 22.68 22.68;" xml:space="preserve">
<style type="text/css">
	.st0{fill:#D32027;}
</style>
<path d="M1.46,13.28l1.6-4.86l1.26,3.8l-1.16,1.16L1.46,13.28z M3.91,7.99l4.43,0.2l-3.28,3.28L3.91,7.99z M5.11,7.27L6.83,6.3
	l3.89,0.18l-0.56,1.02L5.11,7.27z M8.11,5.57L9.83,4.6l2.07,0.1l-0.57,0.66l-0.19,0.35L8.11,5.57z M11.12,3.88l2.87-1.62l-1.44,1.68
	L11.12,3.88z M15.3,0.3L2.17,7.7L0,14.26l1.1,0.07l0.01,1.71h3.04l7.29-7.29l-0.48-0.48l1.25-2.29L17.32,0L15.3,0.3z"/>
<path d="M9.29,19.53l1.17-1.17l3.8,1.26L9.4,21.22L9.29,19.53z M11.21,17.62l3.28-3.28l0.2,4.43L11.21,17.62z M15.17,12.52
	l1.02-0.56l0.18,3.89l-0.97,1.72L15.17,12.52z M16.96,11.54l0.35-0.19l0.66-0.57l0.1,2.07l-0.97,1.72L16.96,11.54z M18.73,10.13
	l1.68-1.44l-1.62,2.87L18.73,10.13z M16.71,10.47l-2.29,1.25l-0.48-0.48l-7.28,7.28v3.05l1.7,0.01l0.07,1.1l6.56-2.17l7.4-13.12
	l0.3-2.02L16.71,10.47z"/>
<polygon points="1.06,17.1 4.52,17.1 4.77,17.9 5.59,18.15 5.59,21.61 1.06,21.61 "/>
<polygon class="st0" points="6.38,17.29 5.9,17.14 5.63,17.05 "/>
<polygon points="5.39,16.3 12.85,8.84 13.96,8.72 13.84,9.83 6.38,17.29 5.63,17.05 5.63,17.05 "/>
</svg>
