<?xml version="1.0" encoding="utf-8"?>
<svg version="1.1" id="Layer_1" xmlns="http://www.w3.org/2000/svg" xmlns:xlink="http://www.w3.org/1999/xlink" x="0px" y="0px"
	 viewBox="0 0 22.68 22.68" style="enable-background:new 0 0 22.68 22.68;" xml:space="preserve">
<style type="text/css">
	.st0{clip-path:url(#SVGID_00000121966466443674129700000015420000096424010368_);}
</style>
<polygon points="13.56,14.76 12.8,15 12.19,16.39 11.34,16.54 10.49,16.39 9.88,15 9.11,14.76 8.85,12.37 9.33,12.78 11.34,13.33 
	13.34,12.78 13.82,12.37 "/>
<polygon points="17.74,15.67 19.7,16.55 20.01,13.79 18.19,11.33 15,11.33 14.66,14.41 15.82,16.54 "/>
<polygon points="15.92,17.66 16.16,20.42 16.51,20.2 16.82,19.67 18.66,19.67 18.97,20.2 19.33,20.42 19.57,17.66 17.74,16.84 "/>
<polygon points="17.44,20.72 17.29,20.97 16.26,21.6 16.15,22.66 16.15,22.68 19.33,22.68 19.33,22.66 19.22,21.6 18.19,20.97 
	18.04,20.72 "/>
<polygon points="13.75,22.13 14.15,22.68 15.48,22.68 15.52,22.35 15.73,22.25 15.82,21.56 15.58,21.52 15.63,21.18 15.42,21.07 "/>
<polygon points="19.85,21.18 19.9,21.52 19.67,21.56 19.75,22.25 19.97,22.35 20.01,22.68 21.33,22.68 21.73,22.13 20.07,21.07 "/>
<polygon points="4.49,11.33 2.66,13.79 2.98,16.55 4.93,15.67 6.86,16.54 8.01,14.41 7.68,11.33 "/>
<polygon points="3.11,17.66 3.35,20.42 3.7,20.2 4.02,19.67 5.85,19.67 6.17,20.2 6.52,20.42 6.76,17.66 4.93,16.84 "/>
<polygon points="4.63,20.72 4.48,20.97 3.46,21.6 3.34,22.66 3.34,22.68 6.53,22.68 6.52,22.66 6.41,21.6 5.38,20.97 5.23,20.72 "/>
<polygon points="7.04,21.18 7.1,21.52 6.86,21.56 6.95,22.25 7.16,22.35 7.2,22.68 8.52,22.68 8.93,22.13 7.26,21.07 "/>
<polygon points="0.94,22.13 1.35,22.68 2.67,22.68 2.71,22.35 2.92,22.25 3.01,21.56 2.77,21.52 2.82,21.18 2.61,21.07 "/>
<g>
	<defs>
		<rect id="SVGID_1_" width="22.68" height="22.68"/>
	</defs>
	<clipPath id="SVGID_00000010278166150369249380000018196680897941808566_">
		<use xlink:href="#SVGID_1_"  style="overflow:visible;"/>
	</clipPath>
	<path style="clip-path:url(#SVGID_00000010278166150369249380000018196680897941808566_);" d="M5.4-0.01h1.63
		c0.2,0.19,0.33,0.3,0.53,0.48l0.16,1.8H5.03l-0.16-1.7C5.08,0.34,5.19,0.22,5.4-0.01"/>
	<path style="clip-path:url(#SVGID_00000010278166150369249380000018196680897941808566_);" d="M17.28-0.01h-1.63
		c-0.2,0.19-0.33,0.3-0.53,0.48l-0.16,1.8h2.69l0.16-1.7C17.59,0.34,17.49,0.22,17.28-0.01"/>
	<path style="clip-path:url(#SVGID_00000010278166150369249380000018196680897941808566_);" d="M21.47,4.06h-2.35l-1.21,0.6
		l0.19,1.06h-1.08l-0.29-1.66l0.8-0.4c-0.1-0.1-0.19-0.19-0.32-0.32h-2.35l-0.1,1.06h-1.07l0.24-2.58h-1.05l-0.51-0.49h-1.03H10.3
		L9.79,1.82H8.75L8.98,4.4H7.91l-0.1-1.06H5.47L5.15,3.66l0.8,0.4L5.66,5.72H4.58l0.19-1.06l-1.21-0.6H1.21L0,4.65l0.85,4.84h3.08
		l0.37-2.11h1.08h0.45C6.03,7.6,6.15,7.71,6.36,7.92h1.48C7.97,7.8,8.2,7.56,8.2,7.56L8.11,6.5h1.07L9.23,7.1l1.05,0.31v1.11
		L9.1,8.17L8.28,8.99h-0.8L7.46,9.44l2.64,2.45l1.23,0.33l1.24-0.34l2.64-2.45l-0.02-0.45H14.4l-0.82-0.82l-1.19,0.35V7.41
		l1.05-0.31L13.5,6.5h1.07l-0.1,1.06c0,0,0.24,0.24,0.37,0.36h1.48c0.21-0.21,0.33-0.33,0.54-0.54h0.45h1.08l0.37,2.11h3.08
		l0.84-4.84L21.47,4.06z M2.39,8.43c-0.27,0-0.48-0.22-0.48-0.48c0-0.27,0.22-0.48,0.48-0.48s0.48,0.21,0.48,0.48
		C2.87,8.21,2.65,8.43,2.39,8.43 M2.39,6.4c-0.35,0-0.64-0.29-0.64-0.64c0-0.35,0.29-0.64,0.64-0.64c0.35,0,0.64,0.29,0.64,0.64
		C3.03,6.11,2.74,6.4,2.39,6.4 M20.29,8.43c-0.27,0-0.48-0.22-0.48-0.48c0-0.27,0.22-0.48,0.48-0.48c0.27,0,0.48,0.21,0.48,0.48
		C20.77,8.21,20.56,8.43,20.29,8.43 M20.29,6.4c-0.35,0-0.64-0.29-0.64-0.64c0-0.35,0.29-0.64,0.64-0.64c0.35,0,0.64,0.29,0.64,0.64
		C20.93,6.11,20.65,6.4,20.29,6.4"/>
</g>
</svg>
