<?xml version="1.0" encoding="utf-8"?>
<!-- Generator: Adobe Illustrator 28.2.0, SVG Export Plug-In . SVG Version: 6.00 Build 0)  -->
<svg version="1.1" id="Layer_1" xmlns="http://www.w3.org/2000/svg" xmlns:xlink="http://www.w3.org/1999/xlink" x="0px" y="0px"
	 viewBox="0 0 22.68 22.68" style="enable-background:new 0 0 22.68 22.68;" xml:space="preserve">
<path d="M4.91,14.34l-0.18,3.61l3.69-0.19l3.1-6.58L4.91,14.34z M5.12,20.31l0.81-0.04l1.64,1.34l-3.76,0L5.12,20.31z M12.01,16.22
	l2.86,1.09l0.1,0.27L9.66,21.2L12.01,16.22z M1.06,15.09l1.34,1.65l-0.04,0.82l-1.3,1.3V15.09z M3.89,13.65l9.87-4.72l-4.65,9.86
	l-5.5,0.28L3.89,13.65z M5.1,7.7l0.27,0.1l1.11,2.91l-5.1,2.43L5.1,7.7z M18.52,4.16l-1.37-0.42l3.34-1.55l-1.55,3.34L18.52,4.16z
	 M22.68,0l-8.42,3.92l0.67,1.58l-0.55,0.26l-1.94-0.93L6.85,8.69L6.2,6.99L4.7,6.4L0,13.29v4.07v4.07l2.28-2.28l-0.07,1.32
	l1.32-0.07l-2.28,2.28h4.07l4.07,0l6.89-4.7l-0.59-1.5l-1.7-0.65l3.86-5.59L16.91,8.3l0.27-0.55l1.58,0.67L22.68,0L22.68,0z"/>
</svg>
