<?xml version="1.0" encoding="utf-8"?>
<svg version="1.1" id="Layer_1" xmlns="http://www.w3.org/2000/svg" xmlns:xlink="http://www.w3.org/1999/xlink" x="0px" y="0px"
	 viewBox="0 0 22.91 19.84" style="enable-background:new 0 0 22.91 19.84;" xml:space="preserve">
<path d="M6.39,18.1l1.34-2.32h0.6l1.34,2.32L9.37,18.6H6.68L6.39,18.1z M13.25,18.1l1.34-2.32h0.6l1.34,2.32l-0.29,0.51h-2.69
	L13.25,18.1z M1.43,16.91l0.82-1.43l1.8,3.12H2.41L1.43,16.91z M20.65,15.48l0.82,1.43L20.5,18.6h-1.65L20.65,15.48z M2.61,14.86
	l0.43-0.74h0.33h3.4h0.6l0.3,0.52L5.38,18.6H4.77L2.61,14.86z M15.24,14.64l0.3-0.52h0.6h3.4h0.33l0.43,0.74l-2.16,3.74h-0.61
	L15.24,14.64z M3.57,13.21l1.47-2.55h0.34l1.34,2.32l-0.3,0.52H3.74L3.57,13.21z M16.2,12.98l1.34-2.32h0.34l1.47,2.55l-0.17,0.29
	h-2.68L16.2,12.98z M5.57,9.75l0.91-1.57h9.97l0.91,1.57l-5.11,8.85h-1.56L5.57,9.75z M7.13,7.05l1.34-2.32H8.8l0.67,1.16l0.67,1.16
	l-0.3,0.52H7.43L7.13,7.05z M12.77,7.05l0.67-1.16l0.67-1.16h0.34l1.34,2.32l-0.3,0.52h-2.42L12.77,7.05z M10.5,6.43l-0.49-0.85
	L8.99,3.82l0.43-0.74h4.07l0.43,0.74L12.9,5.58l-1.15,1.99h-0.6L10.5,6.43z M10.48,1.24h1.95l0.7,1.21H9.78L10.48,1.24z M9.76,0
	L0,16.91l1.69,2.93h19.53l1.69-2.93L13.15,0H9.76z"/>
</svg>
