<?xml version="1.0" encoding="utf-8"?>
<svg version="1.1" id="Layer_1" xmlns="http://www.w3.org/2000/svg" xmlns:xlink="http://www.w3.org/1999/xlink" x="0px" y="0px"
	 viewBox="0 0 22.91 19.84" style="enable-background:new 0 0 22.91 19.84;" xml:space="preserve">
<path d="M15.75,17.35l1.83-3.18l1.08,0.62l-2.19,3.8H6.45l-2.19-3.8l1.08-0.62l1.83,3.18H15.75z M9.35,10.29l0.56,0.47l0.14,0.77
	l-3.7,1.32L9.35,10.29z M12.87,11.53l0.14-0.77l0.56-0.47l3.01,2.56L12.87,11.53z M12.27,8.45l4.3-1.53l-3.48,2.97l-0.65,0.55
	l-0.16,0.88l-0.82,4.45l-0.82-4.45l-0.16-0.88L9.83,9.88L6.34,6.92l4.3,1.53l0.82,0.29L12.27,8.45z M10.75,7.83l0.7-3.83l0.7,3.83
	l-0.7,0.25L10.75,7.83z M1.44,9.92l5.01-8.68h4.39v1.24H7.17L2.88,9.92l1.83,3.18l-1.08,0.62L1.44,9.92z M12.08,1.25h4.39l5.01,8.68
	l-2.19,3.8L18.2,13.1l1.83-3.18l-4.29-7.43h-3.67V1.25z M5.73,0L0,9.92l2.55,4.42h0l0.62,1.08l2.55,4.42h11.46l5.73-9.92L17.18,0
	H5.73z"/>
</svg>
