<?xml version="1.0" encoding="utf-8"?>
<svg version="1.1" id="Layer_1" xmlns="http://www.w3.org/2000/svg" xmlns:xlink="http://www.w3.org/1999/xlink" x="0px" y="0px"
	 viewBox="0 0 10.72 11.34" style="enable-background:new 0 0 10.72 11.34;" xml:space="preserve">
<style type="text/css">
	.st0{clip-path:url(#SVGID_00000124865867675418974850000002827896139279529643_);}
</style>
<g>
	<defs>
		<rect id="SVGID_1_" width="10.72" height="11.34"/>
	</defs>
	<clipPath id="SVGID_00000005228330737967534310000009388617771620460162_">
		<use xlink:href="#SVGID_1_"  style="overflow:visible;"/>
	</clipPath>
	<path style="clip-path:url(#SVGID_00000005228330737967534310000009388617771620460162_);" d="M10.7,7.71
		c-0.01-0.04-0.01-0.09-0.02-0.13c0-0.02-0.01-0.04-0.01-0.06c0-0.02-0.01-0.03-0.01-0.05c0-0.01-0.01-0.03-0.01-0.04
		c-0.01-0.02-0.01-0.05-0.02-0.07c-0.01-0.04-0.03-0.09-0.05-0.13c-0.03-0.07-0.06-0.15-0.1-0.22c-0.02-0.04-0.04-0.09-0.07-0.14
		c0,0,0,0,0,0c-0.02-0.05-0.05-0.09-0.07-0.14c-0.2-0.34-0.47-0.7-0.8-1.06c0.35-0.38,0.64-0.76,0.84-1.13
		c0.01-0.02,0.03-0.05,0.04-0.07c0.02-0.05,0.05-0.09,0.07-0.14c0.01-0.02,0.02-0.04,0.03-0.06c0.03-0.05,0.05-0.11,0.07-0.16
		c0.02-0.04,0.03-0.09,0.05-0.13c0.01-0.02,0.02-0.05,0.02-0.07c0-0.01,0.01-0.03,0.01-0.04c0-0.02,0.01-0.03,0.01-0.05
		c0.01-0.02,0.01-0.04,0.01-0.06c0.01-0.04,0.02-0.09,0.02-0.13c0.01-0.04,0.01-0.08,0.01-0.11c0.01-0.08,0.01-0.15,0-0.22
		c-0.01-0.17-0.06-0.32-0.14-0.46c-0.1-0.17-0.25-0.31-0.44-0.42c-0.03-0.02-0.05-0.03-0.08-0.04c-0.04-0.02-0.07-0.03-0.11-0.05
		C9.93,2.32,9.91,2.31,9.9,2.31c-0.27-0.1-0.6-0.15-0.97-0.15c-0.4,0-0.85,0.06-1.33,0.17C7.49,1.97,7.36,1.65,7.22,1.36
		C7.19,1.3,7.16,1.23,7.12,1.17C7.06,1.05,6.99,0.94,6.92,0.84C6.9,0.81,6.88,0.78,6.86,0.75C6.83,0.71,6.79,0.67,6.76,0.63
		C6.74,0.6,6.72,0.58,6.7,0.56C6.69,0.54,6.68,0.53,6.67,0.52c-0.27-0.3-0.57-0.48-0.89-0.51c-0.01,0-0.03,0-0.04,0
		C5.72,0,5.69,0,5.67,0C5.65,0,5.64,0,5.63,0C5.62,0,5.6,0,5.59,0c-0.01,0-0.03,0-0.04,0c-0.01,0-0.02,0-0.04,0.01
		c-0.02,0-0.05,0.01-0.07,0.01c-0.62,0.14-1.18,0.85-1.57,1.9C3.86,1.93,3.84,1.94,3.83,1.95L2.58,1.03
		c-0.1-0.07-0.23-0.06-0.31,0.02L1.05,2.27C0.98,2.34,0.96,2.45,1.01,2.54c0,0,0,0,0,0c0.01,0.01,0.01,0.02,0.02,0.03l0.24,0.33
		l0.16,0.21l0.52,0.71C1.87,4,1.8,4.16,1.74,4.34L1.67,4.35L1.39,4.39L0.92,4.46l-0.01,0L0.2,4.57C0.09,4.59,0,4.69,0,4.81v1.72
		c0,0.12,0.09,0.22,0.2,0.23l0.72,0.11l0.01,0l0.47,0.07l0.28,0.04L1.74,7c0.06,0.17,0.13,0.34,0.21,0.5L1.42,8.22L1.27,8.43
		L1.03,8.76C1.02,8.77,1.01,8.78,1.01,8.8c0,0,0,0,0,0C0.96,8.89,0.98,9,1.05,9.07l1.22,1.22c0.08,0.08,0.21,0.09,0.31,0.02
		l1.26-0.92C3.84,9.4,3.86,9.4,3.87,9.41c0.39,1.06,0.95,1.77,1.57,1.9c0.02,0.01,0.05,0.01,0.07,0.01c0.01,0,0.02,0,0.04,0.01
		c0.01,0,0.03,0,0.04,0c0.01,0,0.03,0,0.04,0c0.01,0,0.03,0,0.04,0c0.02,0,0.05,0,0.07,0c0.01,0,0.03,0,0.04,0
		c0.32-0.03,0.62-0.21,0.89-0.51c0.01-0.01,0.02-0.02,0.03-0.04c0.02-0.02,0.04-0.05,0.06-0.08c0.03-0.04,0.06-0.08,0.09-0.12
		c0.02-0.03,0.04-0.05,0.06-0.08c0.07-0.1,0.14-0.22,0.21-0.34c0.03-0.06,0.07-0.13,0.1-0.19C7.36,9.69,7.49,9.37,7.6,9.01
		c0.48,0.11,0.93,0.17,1.33,0.17c0.37,0,0.7-0.05,0.97-0.15c0.02-0.01,0.04-0.01,0.05-0.02C9.99,9,10.02,8.98,10.06,8.97
		c0.03-0.01,0.06-0.03,0.08-0.04c0.19-0.11,0.34-0.25,0.44-0.42c0.08-0.14,0.13-0.29,0.14-0.46c0.01-0.07,0.01-0.15,0-0.22
		C10.72,7.79,10.71,7.75,10.7,7.71 M8.52,5.67c-0.15,0.14-0.31,0.27-0.47,0.4c0-0.13,0.01-0.27,0.01-0.4s0-0.27-0.01-0.41
		C8.22,5.4,8.37,5.53,8.52,5.67 M9.42,4.7C9.3,4.86,9.17,5.01,9.03,5.17C8.72,4.88,8.37,4.6,7.99,4.33
		C7.94,3.86,7.87,3.42,7.78,3.01c0.41-0.09,0.8-0.14,1.15-0.14c0.53,0,0.92,0.12,1.04,0.32C10.08,3.4,10.01,3.92,9.42,4.7
		 M9.96,8.15c-0.12,0.2-0.5,0.32-1.04,0.32c-0.35,0-0.73-0.05-1.15-0.14c0.09-0.41,0.16-0.85,0.21-1.32
		c0.38-0.27,0.73-0.56,1.04-0.84C9.17,6.32,9.3,6.48,9.42,6.64C10.01,7.42,10.08,7.94,9.96,8.15 M6.7,9.4
		c-0.38,0.9-0.8,1.22-1.04,1.23V8.35C6.09,8.55,6.51,8.7,6.91,8.83C6.85,9.03,6.78,9.22,6.7,9.4 M6.86,7.74
		C6.98,7.67,7.1,7.6,7.21,7.53C7.18,7.74,7.14,7.95,7.1,8.14C6.9,8.08,6.71,8.01,6.51,7.94C6.63,7.87,6.74,7.81,6.86,7.74 M6.51,3.4
		C6.71,3.33,6.9,3.26,7.1,3.2c0.04,0.2,0.08,0.4,0.11,0.61C7.1,3.74,6.98,3.67,6.86,3.6C6.74,3.53,6.63,3.47,6.51,3.4 M6.7,1.94
		c0.08,0.18,0.15,0.37,0.21,0.57c-0.4,0.12-0.82,0.28-1.24,0.47V0.71C5.91,0.71,6.32,1.03,6.7,1.94"/>
</g>
</svg>
