<?xml version="1.0" encoding="utf-8"?>
<svg version="1.1" id="Layer_1" xmlns="http://www.w3.org/2000/svg" xmlns:xlink="http://www.w3.org/1999/xlink" x="0px" y="0px"
	 viewBox="0 0 11.34 11.34" style="enable-background:new 0 0 11.34 11.34;" xml:space="preserve">
<style type="text/css">
	.st0{fill:#7D7D7D;}
	.st1{clip-path:url(#SVGID_00000142855343937748832820000003640857631842515127_);}
</style>
<rect x="3.54" y="3.54" transform="matrix(0.7072 -0.707 0.707 0.7072 -2.3482 5.6676)" class="st0" width="4.25" height="4.25"/>
<g>
	<defs>
		<rect id="SVGID_1_" width="11.34" height="11.34"/>
	</defs>
	<clipPath id="SVGID_00000115486530109006288780000015848177667079106218_">
		<use xlink:href="#SVGID_1_"  style="overflow:visible;"/>
	</clipPath>
	<path style="clip-path:url(#SVGID_00000115486530109006288780000015848177667079106218_);" d="M5.67,0.71
		c1.32,0,2.57,0.52,3.51,1.45s1.45,2.18,1.45,3.51c0,1.33-0.52,2.57-1.45,3.51c-0.94,0.94-2.18,1.45-3.51,1.45
		c-1.33,0-2.57-0.52-3.51-1.45C1.22,8.24,0.71,6.99,0.71,5.67c0-1.32,0.52-2.57,1.45-3.51S4.34,0.71,5.67,0.71 M5.67,0
		C2.54,0,0,2.54,0,5.67c0,3.13,2.54,5.67,5.67,5.67c3.13,0,5.67-2.54,5.67-5.67C11.34,2.54,8.8,0,5.67,0"/>
	<path style="clip-path:url(#SVGID_00000115486530109006288780000015848177667079106218_);" d="M6.73,5.67
		c0,0.59-0.48,1.06-1.06,1.06c-0.59,0-1.06-0.48-1.06-1.06c0-0.59,0.48-1.06,1.06-1.06C6.26,4.61,6.73,5.08,6.73,5.67"/>
</g>
</svg>
