<?xml version="1.0" encoding="utf-8"?>
<svg version="1.1" id="Layer_1" xmlns="http://www.w3.org/2000/svg" xmlns:xlink="http://www.w3.org/1999/xlink" x="0px" y="0px"
	 viewBox="0 0 39.68 39.69" style="enable-background:new 0 0 39.68 39.69;" xml:space="preserve">
<style type="text/css">
	.st0{fill:#FFFFFF;}
</style>
<polygon points="2.84,0 0,2.84 0,36.85 2.84,39.69 36.85,39.69 39.68,36.85 39.68,2.84 36.85,0 "/>
<path class="st0" d="M11,19.84l4.42-7.66h8.84l4.42,7.66l-4.42,7.66h-8.84L11,19.84z M14.93,11.33l-4.91,8.51l4.91,8.51h9.82
	l4.91-8.51l-4.91-8.51H14.93z"/>
<polygon class="st0" points="16.44,17.59 17.87,20.06 18.81,19.52 18.32,18.67 21.36,18.67 19.84,21.31 19.35,20.46 18.41,21.01 
	19.84,23.48 23.25,17.59 "/>
</svg>
