<?xml version="1.0" encoding="utf-8"?>
<svg version="1.1" id="Layer_1" xmlns="http://www.w3.org/2000/svg" xmlns:xlink="http://www.w3.org/1999/xlink" x="0px" y="0px"
	 viewBox="0 0 39.68 39.69" style="enable-background:new 0 0 39.68 39.69;" xml:space="preserve">
<style type="text/css">
	.st0{fill:#FFFFFF;}
</style>
<polygon points="2.84,0 0,2.84 0,36.85 2.84,39.69 36.85,39.69 39.68,36.85 39.68,2.84 36.85,0 "/>
<path class="st0" d="M22.42,16.86l0.4,0.4v5.16l-0.4,0.4h-5.16l-0.4-0.4v-5.16l0.4-0.4H22.42z M22.6,16.44h-5.52l-0.65,0.65v5.52
	l0.65,0.65h5.52l0.65-0.65v-5.52L22.6,16.44z"/>
<path class="st0" d="M11,19.84l4.42-7.66h8.84l4.42,7.66l-4.42,7.66h-8.84L11,19.84z M14.93,11.33l-4.91,8.51l4.91,8.51h9.83
	l4.91-8.51l-4.91-8.51H14.93z"/>
</svg>
