<?xml version="1.0" encoding="utf-8"?>
<svg version="1.1" id="Layer_1" xmlns="http://www.w3.org/2000/svg" xmlns:xlink="http://www.w3.org/1999/xlink" x="0px" y="0px"
	 viewBox="0 0 39.68 39.69" style="enable-background:new 0 0 39.68 39.69;" xml:space="preserve">
<style type="text/css">
	.st0{fill:#FFFFFF;}
	.st1{clip-path:url(#SVGID_00000159466338558754418660000003886965147884781983_);fill:#FFFFFF;}
</style>
<polygon points="2.84,0 0,2.84 0,36.85 2.84,39.69 36.85,39.69 39.68,36.85 39.68,2.84 36.85,0 "/>
<polygon class="st0" points="19.84,13.16 19.84,24.62 18.89,25.57 17.93,25.57 17.93,13.16 "/>
<polygon class="st0" points="16.98,13.16 16.98,23.66 15.07,21.75 15.07,13.16 "/>
<polygon class="st0" points="22.71,13.16 22.71,20.8 21.36,20.8 21.08,21.08 20.8,21.36 20.8,13.16 "/>
<g transform="scale(1.3) translate(-4.5 -4.5)">
	<defs>
		<rect id="SVGID_1_" x="11.25" y="10.29" width="17.2" height="19.11"/>
	</defs>
	<clipPath id="SVGID_00000047772306210853628750000010820436806669429913_">
		<use xlink:href="#SVGID_1_"  style="overflow:visible;"/>
	</clipPath>
	<path style="clip-path:url(#SVGID_00000047772306210853628750000010820436806669429913_);fill:#FFFFFF;" d="M11.25,10.29
		L11.25,10.29h15.28l-1.91,1.91H13.16C12.41,11.45,11.99,11.04,11.25,10.29"/>
	<path style="clip-path:url(#SVGID_00000047772306210853628750000010820436806669429913_);fill:#FFFFFF;" d="M27.49,21.75h-5.73
		l-0.96,0.95v5.73c0.37,0.37,0.58,0.58,0.96,0.96h5.73l0.96-0.96v-5.73C28.07,22.34,27.86,22.13,27.49,21.75 M26.53,26.05H25.1v1.43
		h-0.96v-1.43h-1.43V25.1h1.43v-1.43h0.96v1.43h1.43V26.05z"/>
</g>
</svg>
