<?xml version="1.0" encoding="utf-8"?>
<svg version="1.1" id="Layer_1" xmlns="http://www.w3.org/2000/svg" xmlns:xlink="http://www.w3.org/1999/xlink" x="0px" y="0px"
	 viewBox="0 0 39.68 39.69" style="enable-background:new 0 0 39.68 39.69;" xml:space="preserve">
<style type="text/css">
	.st0{clip-path:url(#SVGID_00000065060084803074491280000003662498622949817493_);fill:#FFFFFF;}
</style>
<polygon points="2.84,0 0,2.84 0,36.85 2.84,39.69 36.85,39.69 39.68,36.85 39.68,2.84 36.85,0 "/>
<g>
	<defs>
		<rect id="SVGID_1_" x="11.81" y="11.81" width="16.06" height="16.06"/>
	</defs>
	<clipPath id="SVGID_00000038376654539759347830000002290717178830555273_">
		<use xlink:href="#SVGID_1_"  style="overflow:visible;"/>
	</clipPath>
	<path style="clip-path:url(#SVGID_00000038376654539759347830000002290717178830555273_);fill:#FFFFFF;" d="M24.05,25.47
		c-1.21,0.91-2.67,1.4-4.21,1.4c-1.54,0-3-0.49-4.21-1.4l-0.72,0.72c1.36,1.06,3.07,1.69,4.92,1.69c1.86,0,3.56-0.63,4.92-1.69
		L24.05,25.47z M13.5,14.92c-1.06,1.36-1.69,3.07-1.69,4.92c0,1.86,0.63,3.56,1.69,4.92l0.72-0.72c-0.91-1.21-1.4-2.67-1.4-4.21
		c0-1.54,0.49-3,1.4-4.21L13.5,14.92z M19.84,11.81c-1.86,0-3.56,0.63-4.92,1.69l0.72,0.72c1.21-0.91,2.67-1.4,4.21-1.4
		c1.54,0,3,0.49,4.21,1.4l0.72-0.71C23.41,12.44,21.7,11.81,19.84,11.81 M26.19,14.92l-0.72,0.72c0.91,1.21,1.4,2.67,1.4,4.21
		c0,1.54-0.49,3-1.4,4.21l0.72,0.72c1.06-1.36,1.69-3.07,1.69-4.92C27.87,17.99,27.24,16.28,26.19,14.92"/>
	<polygon style="clip-path:url(#SVGID_00000038376654539759347830000002290717178830555273_);fill:#FFFFFF;" points="19.49,13.82 
		19.49,20.9 17.7,19.12 18.42,17 	"/>
	<polygon style="clip-path:url(#SVGID_00000038376654539759347830000002290717178830555273_);fill:#FFFFFF;" points="21.98,20.56 
		21.26,22.68 20.2,25.84 20.2,18.78 	"/>
</g>
</svg>
