<?xml version="1.0" encoding="utf-8"?>
<svg version="1.1" id="Layer_1" xmlns="http://www.w3.org/2000/svg" xmlns:xlink="http://www.w3.org/1999/xlink" x="0px" y="0px"
	 viewBox="0 0 39.68 39.69" style="enable-background:new 0 0 39.68 39.69;" xml:space="preserve">
<style type="text/css">
	.st0{clip-path:url(#SVGID_00000016779610286649335500000000294595628094583432_);fill:#FFFFFF;}
</style>
<polygon points="2.84,0 0,2.84 0,36.85 2.84,39.69 36.85,39.69 39.68,36.85 39.68,2.84 36.85,0 "/>
<g transform="scale(1.3) translate(-4.5 -4.5)">
	<defs>
		<rect id="SVGID_1_" x="10.01" y="11.34" width="19.67" height="17.01"/>
	</defs>
	<clipPath id="SVGID_00000055679466157170219090000000191525482243438994_">
		<use xlink:href="#SVGID_1_"  style="overflow:visible;"/>
	</clipPath>
	<path style="clip-path:url(#SVGID_00000055679466157170219090000000191525482243438994_);fill:#FFFFFF;" d="M23.32,22.4l-0.58-1.26
		l-0.53,0.76c-0.99-0.6-2.15-0.82-3.3-0.62c-1.27,0.22-2.38,0.92-3.12,1.97l0.73,0.52c1.18-1.67,3.43-2.14,5.16-1.13l-0.55,0.79
		l1.39,0.13l1.39,0.13L23.32,22.4z"/>
	<polygon style="clip-path:url(#SVGID_00000055679466157170219090000000191525482243438994_);fill:#FFFFFF;" points="26.4,14.19 
		25.81,14.87 28.68,19.84 24.26,27.5 15.42,27.5 11.01,19.84 13.79,15.03 13.18,14.37 10.02,19.84 14.93,28.35 24.75,28.35 
		29.66,19.84 	"/>
	<path style="clip-path:url(#SVGID_00000055679466157170219090000000191525482243438994_);fill:#FFFFFF;" d="M20.06,12.36
		c0,0.11-0.09,0.2-0.2,0.2c-0.11,0-0.2-0.09-0.2-0.2c0-0.11,0.09-0.2,0.2-0.2C19.97,12.16,20.06,12.25,20.06,12.36"/>
	<path style="clip-path:url(#SVGID_00000055679466157170219090000000191525482243438994_);fill:#FFFFFF;" d="M20.52,11.34h-1.33
		l-0.43,1l0.56,2.86h1.07l0.56-2.86L20.52,11.34z M20.18,12.44c-0.02,0.13-0.09,0.38-0.2,0.75c-0.02,0.05-0.07,0.09-0.12,0.09
		c-0.06,0-0.11-0.04-0.12-0.09c-0.11-0.37-0.18-0.62-0.2-0.75c-0.01-0.02-0.01-0.05-0.01-0.07c0-0.18,0.15-0.33,0.33-0.33
		c0.18,0,0.33,0.15,0.33,0.33C20.19,12.39,20.19,12.41,20.18,12.44"/>
	<polygon style="clip-path:url(#SVGID_00000055679466157170219090000000191525482243438994_);fill:#FFFFFF;" points="22.21,14.38 
		22.21,15.05 21.48,16.95 19.85,17.18 18.22,16.95 17.48,15.02 17.48,14.38 17.8,14.32 17.83,14.31 17.83,14.28 17.58,13.04 
		18,12.07 18.51,12.07 18.39,12.36 18.39,12.37 18.39,12.37 19.02,15.57 19.02,15.6 20.68,15.6 20.68,15.57 21.31,12.37 
		21.31,12.37 21.31,12.36 21.18,12.07 21.7,12.07 22.11,13.04 21.87,14.28 21.87,14.31 21.9,14.32 	"/>
	<path style="clip-path:url(#SVGID_00000055679466157170219090000000191525482243438994_);fill:#FFFFFF;" d="M20.06,12.36
		c0,0.11-0.09,0.2-0.2,0.2c-0.11,0-0.2-0.09-0.2-0.2c0-0.11,0.09-0.2,0.2-0.2C19.97,12.16,20.06,12.25,20.06,12.36"/>
	<path style="clip-path:url(#SVGID_00000055679466157170219090000000191525482243438994_);fill:#FFFFFF;" d="M17.25,15.6l-0.46,0.01
		l-0.35-0.37l-0.86,0.41v1.2l2.16,2.52h0.94L17.25,15.6z M16.49,15.9c-0.02,0.11-0.11,0.2-0.22,0.22c-0.19,0.03-0.34-0.13-0.31-0.32
		c0.02-0.11,0.11-0.2,0.22-0.22C16.36,15.56,16.52,15.71,16.49,15.9"/>
	<polygon style="clip-path:url(#SVGID_00000055679466157170219090000000191525482243438994_);fill:#FFFFFF;" points="21.37,17.36 
		20.47,19.69 19.86,19.87 19.24,19.69 18.35,17.36 19.86,17.58 	"/>
	<path style="clip-path:url(#SVGID_00000055679466157170219090000000191525482243438994_);fill:#FFFFFF;" d="M23.24,15.23
		l-0.35,0.37l-0.46,0l-1.44,3.76h0.95l2.17-2.52v-1.2L23.24,15.23z M23.44,16.12c-0.11-0.02-0.2-0.11-0.22-0.22
		c-0.03-0.19,0.13-0.34,0.31-0.31c0.11,0.02,0.2,0.11,0.22,0.22C23.79,15.99,23.63,16.15,23.44,16.12"/>
</g>
</svg>
