<?xml version="1.0" encoding="utf-8"?>
<svg version="1.1" id="Layer_1" xmlns="http://www.w3.org/2000/svg" xmlns:xlink="http://www.w3.org/1999/xlink" x="0px" y="0px"
	 viewBox="0 0 39.68 39.69" style="enable-background:new 0 0 39.68 39.69;" xml:space="preserve">
<style type="text/css">
	.st0{clip-path:url(#SVGID_00000078732680112667973690000016902250394187879061_);fill:#FFFFFF;}
</style>
<polygon points="2.84,0 0,2.84 0,36.85 2.84,39.69 36.85,39.69 39.68,36.85 39.68,2.84 36.85,0 "/>
<g transform="scale(1.3) translate(-4.5 -4.5)">
	<defs>
		<rect id="SVGID_1_" x="12.51" y="8.68" width="14.66" height="22.32"/>
	</defs>
	<clipPath id="SVGID_00000032610241952249750810000007922224248899173509_">
		<use xlink:href="#SVGID_1_"  style="overflow:visible;"/>
	</clipPath>
	<path style="clip-path:url(#SVGID_00000032610241952249750810000007922224248899173509_);fill:#FFFFFF;" d="M25.34,9.74
		c0.21,0.2,0.38,0.38,0.57,0.57c0.06,0.06,0.13,0.13,0.2,0.2v18.65c-0.14,0.14-0.26,0.26-0.39,0.39s-0.25,0.25-0.39,0.39H14.35
		c-0.14-0.14-0.26-0.26-0.39-0.39c-0.12-0.12-0.25-0.25-0.39-0.39V10.52c0.07-0.07,0.13-0.13,0.2-0.2c0.19-0.19,0.37-0.37,0.58-0.57
		H25.34z M25.78,8.68H13.91c-0.55,0.54-0.85,0.85-1.4,1.4v19.53c0.54,0.54,0.85,0.85,1.4,1.4h11.87c0.54-0.54,0.85-0.85,1.39-1.4
		V10.08C26.63,9.53,26.32,9.22,25.78,8.68"/>
	<path style="clip-path:url(#SVGID_00000032610241952249750810000007922224248899173509_);fill:#FFFFFF;" d="M23.52,17.72
		c-0.27-0.46-0.85-0.69-1.59-0.69c-0.15,0-0.32,0.01-0.48,0.03c-0.39-0.9-0.96-1.47-1.61-1.47c-0.64,0-1.22,0.57-1.61,1.47
		c-0.17-0.02-0.33-0.03-0.48-0.03c-0.75,0-1.33,0.23-1.59,0.69c-0.32,0.55-0.12,1.34,0.47,2.13c-0.59,0.79-0.79,1.57-0.47,2.13
		c0.27,0.46,0.85,0.69,1.59,0.69c0.15,0,0.32-0.01,0.48-0.03c0.39,0.9,0.96,1.47,1.61,1.47c0.64,0,1.22-0.57,1.61-1.47
		c0.17,0.02,0.33,0.03,0.48,0.03c0.75,0,1.33-0.22,1.59-0.69c0.32-0.56,0.12-1.34-0.47-2.13C23.64,19.05,23.85,18.27,23.52,17.72
		 M17.75,22.12c-0.57,0-0.98-0.15-1.13-0.42c-0.17-0.3-0.06-0.81,0.31-1.37c0.01-0.02,0.03-0.05,0.05-0.07
		c0.24,0.26,0.51,0.51,0.82,0.76c0.06,0.39,0.14,0.76,0.25,1.09C17.94,22.12,17.85,22.12,17.75,22.12 M17.73,20.26
		c-0.15-0.14-0.29-0.28-0.41-0.42c0.13-0.14,0.27-0.28,0.41-0.42c-0.01,0.14-0.01,0.28-0.01,0.42
		C17.72,19.98,17.72,20.13,17.73,20.26 M17.8,18.66c-0.31,0.24-0.58,0.5-0.82,0.76c-0.02-0.02-0.03-0.05-0.05-0.07
		c-0.37-0.55-0.48-1.07-0.31-1.37c0.15-0.27,0.57-0.42,1.13-0.42c0.09,0,0.19,0,0.29,0.01C17.94,17.91,17.86,18.27,17.8,18.66
		 M21.27,18.22c-0.12-0.07-0.24-0.15-0.36-0.22c-0.12-0.07-0.25-0.14-0.37-0.2c0.19-0.06,0.39-0.11,0.57-0.15
		C21.17,17.83,21.22,18.02,21.27,18.22 M18.81,17.07c0.3-0.6,0.68-0.95,1.03-0.95c0.35,0,0.73,0.36,1.03,0.95
		c0.01,0.03,0.02,0.05,0.04,0.08c-0.34,0.08-0.7,0.19-1.06,0.33c-0.37-0.15-0.72-0.26-1.07-0.33C18.79,17.12,18.8,17.1,18.81,17.07
		 M18.58,17.65c0.19,0.04,0.38,0.09,0.57,0.15c-0.12,0.06-0.25,0.13-0.37,0.2c-0.12,0.07-0.24,0.15-0.36,0.22
		C18.46,18.02,18.52,17.83,18.58,17.65 M18.42,21.46c0.12,0.08,0.24,0.15,0.36,0.22s0.25,0.14,0.37,0.2
		c-0.19,0.06-0.39,0.11-0.57,0.15C18.52,21.85,18.46,21.66,18.42,21.46 M20.87,22.61c-0.3,0.59-0.68,0.95-1.03,0.95
		c-0.35,0-0.73-0.36-1.03-0.95c-0.01-0.03-0.03-0.05-0.04-0.08c0.34-0.08,0.7-0.19,1.07-0.33c0.36,0.15,0.72,0.26,1.06,0.33
		C20.89,22.56,20.88,22.59,20.87,22.61 M21.11,22.03c-0.19-0.04-0.38-0.09-0.57-0.15c0.12-0.06,0.25-0.13,0.37-0.2
		s0.24-0.14,0.36-0.22C21.22,21.66,21.17,21.85,21.11,22.03 M21.39,20.73c-0.23,0.17-0.48,0.34-0.75,0.49
		c-0.26,0.15-0.53,0.29-0.8,0.4c-0.27-0.12-0.53-0.25-0.8-0.4c-0.26-0.15-0.51-0.32-0.75-0.49c-0.03-0.29-0.05-0.59-0.05-0.89
		c0-0.3,0.02-0.6,0.05-0.89c0.23-0.17,0.48-0.34,0.75-0.49c0.26-0.15,0.53-0.29,0.8-0.4c0.27,0.11,0.53,0.25,0.8,0.4
		c0.26,0.15,0.51,0.32,0.75,0.49c0.03,0.29,0.05,0.59,0.05,0.89C21.44,20.15,21.42,20.45,21.39,20.73 M21.93,17.56
		c0.57,0,0.98,0.15,1.13,0.42c0.17,0.3,0.06,0.81-0.31,1.37c-0.02,0.02-0.03,0.05-0.05,0.07c-0.24-0.26-0.51-0.51-0.82-0.76
		c-0.06-0.39-0.14-0.75-0.25-1.09C21.74,17.57,21.84,17.56,21.93,17.56 M21.96,19.42c0.15,0.14,0.29,0.28,0.42,0.42
		c-0.13,0.14-0.26,0.28-0.42,0.42c0.01-0.14,0.01-0.28,0.01-0.42C21.97,19.7,21.96,19.56,21.96,19.42 M23.06,21.7
		c-0.15,0.27-0.57,0.42-1.13,0.42c-0.09,0-0.19-0.01-0.29-0.01c0.11-0.33,0.19-0.7,0.25-1.09c0.31-0.24,0.58-0.5,0.82-0.76
		c0.02,0.02,0.03,0.05,0.05,0.07C23.12,20.89,23.24,21.4,23.06,21.7"/>
</g>
</svg>
