<?xml version="1.0" encoding="utf-8"?>
<svg version="1.1" id="Layer_1" xmlns="http://www.w3.org/2000/svg" xmlns:xlink="http://www.w3.org/1999/xlink" x="0px" y="0px"
	 viewBox="0 0 39.68 39.69" style="enable-background:new 0 0 39.68 39.69;" xml:space="preserve">
<style type="text/css">
	.st0{clip-path:url(#SVGID_00000178899084306440113090000010768086785997621173_);fill:#FFFFFF;}
</style>
<polygon points="2.84,0 0,2.84 0,36.85 2.84,39.69 36.85,39.69 39.68,36.85 39.68,2.84 36.85,0 "/>
<g transform="scale(1.3) translate(-4.5 -4.5)">
	<defs>
		<rect id="SVGID_1_" x="12.51" y="8.68" width="14.66" height="22.32"/>
	</defs>
	<clipPath id="SVGID_00000141450107891817149930000007410313811090836916_">
		<use xlink:href="#SVGID_1_"  style="overflow:visible;"/>
	</clipPath>
	<path style="clip-path:url(#SVGID_00000141450107891817149930000007410313811090836916_);fill:#FFFFFF;" d="M25.34,9.74
		c0.21,0.2,0.38,0.38,0.57,0.57c0.06,0.06,0.13,0.13,0.2,0.2v18.65c-0.14,0.14-0.26,0.26-0.39,0.39s-0.25,0.25-0.39,0.39H14.35
		c-0.14-0.14-0.26-0.26-0.39-0.39c-0.12-0.12-0.25-0.25-0.39-0.39V10.52c0.07-0.07,0.13-0.13,0.2-0.2c0.19-0.19,0.37-0.37,0.58-0.57
		H25.34z M25.78,8.68H13.91c-0.55,0.54-0.85,0.85-1.4,1.4v19.53c0.54,0.54,0.85,0.85,1.4,1.4h11.87c0.54-0.54,0.85-0.85,1.39-1.4
		V10.08C26.63,9.53,26.32,9.22,25.78,8.68"/>
	<path style="clip-path:url(#SVGID_00000141450107891817149930000007410313811090836916_);fill:#FFFFFF;" d="M22.88,20.93l1.23-0.26
		v-1.65l-1.23-0.26c-0.04-0.11-0.08-0.21-0.13-0.31l0.69-1.06l-1.12-1.12l-1.06,0.69v0c-0.1-0.05-0.2-0.09-0.31-0.13l-0.26-1.23H19
		l-0.26,1.23c-0.11,0.04-0.21,0.08-0.31,0.13v0l-1.06-0.69l-1.12,1.12l0.69,1.06h0c-0.05,0.1-0.09,0.2-0.13,0.31l-1.23,0.26v1.65
		l1.23,0.26c0.04,0.11,0.08,0.21,0.13,0.31h0l-0.69,1.06l1.12,1.12l1.06-0.69v0c0.1,0.05,0.2,0.09,0.31,0.13L19,24.1h1.69l0.26-1.23
		c0.11-0.04,0.21-0.08,0.31-0.13l0,0l1.06,0.69l1.12-1.12l-0.69-1.06C22.8,21.14,22.84,21.04,22.88,20.93z"/>
</g>
</svg>
