<?xml version="1.0" encoding="utf-8"?>
<svg version="1.1" xmlns="http://www.w3.org/2000/svg" xmlns:xlink="http://www.w3.org/1999/xlink" x="0px" y="0px"
	 viewBox="0 0 14.66 22.32" style="enable-background:new 0 0 14.66 22.32;" xml:space="preserve">
<g>
	<path d="M12.82,1.06
		c0.21,0.2,0.38,0.38,0.57,0.57c0.06,0.06,0.13,0.13,0.2,0.2v18.65c-0.14,0.14-0.26,0.26-0.39,0.39s-0.25,0.25-0.39,0.39H1.84
		C1.7,21.12,1.57,21,1.45,20.87c-0.12-0.12-0.25-0.25-0.39-0.39V1.84c0.07-0.07,0.13-0.13,0.2-0.2c0.19-0.19,0.37-0.37,0.58-0.57
		H12.82z M13.26,0H1.4C0.85,0.54,0.54,0.85,0,1.4v19.53c0.54,0.54,0.85,0.85,1.4,1.4h11.87c0.54-0.54,0.85-0.85,1.39-1.4V1.4
		C14.11,0.85,13.81,0.54,13.26,0"/>
	<path d="M11.01,9.04
		c-0.27-0.46-0.85-0.69-1.59-0.69c-0.15,0-0.32,0.01-0.48,0.03c-0.39-0.9-0.96-1.47-1.61-1.47c-0.64,0-1.22,0.57-1.61,1.47
		C5.56,8.36,5.39,8.35,5.24,8.35c-0.75,0-1.33,0.23-1.59,0.69c-0.32,0.55-0.12,1.34,0.47,2.13c-0.59,0.79-0.79,1.57-0.47,2.13
		c0.27,0.46,0.85,0.69,1.59,0.69c0.15,0,0.32-0.01,0.48-0.03c0.39,0.9,0.96,1.47,1.61,1.47c0.64,0,1.22-0.57,1.61-1.47
		c0.17,0.02,0.33,0.03,0.48,0.03c0.75,0,1.33-0.22,1.59-0.69c0.32-0.56,0.12-1.34-0.47-2.13C11.13,10.37,11.33,9.59,11.01,9.04
		 M5.24,13.44c-0.57,0-0.98-0.15-1.13-0.42c-0.17-0.3-0.06-0.81,0.31-1.37c0.01-0.02,0.03-0.05,0.05-0.07
		c0.24,0.26,0.51,0.51,0.82,0.76c0.06,0.39,0.14,0.76,0.25,1.09C5.43,13.44,5.33,13.44,5.24,13.44 M5.21,11.58
		c-0.15-0.14-0.29-0.28-0.41-0.42c0.13-0.14,0.27-0.28,0.41-0.42c-0.01,0.14-0.01,0.28-0.01,0.42C5.2,11.3,5.21,11.45,5.21,11.58
		 M5.29,9.98c-0.31,0.24-0.58,0.5-0.82,0.76c-0.02-0.02-0.03-0.05-0.05-0.07C4.05,10.11,3.93,9.6,4.11,9.3
		c0.15-0.27,0.57-0.42,1.13-0.42c0.09,0,0.19,0,0.29,0.01C5.43,9.23,5.34,9.59,5.29,9.98 M8.75,9.54C8.64,9.47,8.52,9.39,8.39,9.32
		c-0.12-0.07-0.25-0.14-0.37-0.2c0.19-0.06,0.39-0.11,0.57-0.15C8.66,9.15,8.71,9.34,8.75,9.54 M6.3,8.39
		c0.3-0.6,0.68-0.95,1.03-0.95c0.35,0,0.73,0.36,1.03,0.95c0.01,0.03,0.02,0.05,0.04,0.08C8.05,8.55,7.69,8.66,7.33,8.8
		C6.96,8.66,6.61,8.55,6.26,8.47C6.28,8.44,6.29,8.42,6.3,8.39 M6.06,8.97c0.19,0.04,0.38,0.09,0.57,0.15
		c-0.12,0.06-0.25,0.13-0.37,0.2C6.14,9.39,6.02,9.47,5.91,9.54C5.95,9.34,6,9.15,6.06,8.97 M5.91,12.78
		c0.12,0.08,0.24,0.15,0.36,0.22s0.25,0.14,0.37,0.2c-0.19,0.06-0.39,0.11-0.57,0.15C6,13.17,5.95,12.98,5.91,12.78 M8.36,13.93
		c-0.3,0.59-0.68,0.95-1.03,0.95c-0.35,0-0.73-0.36-1.03-0.95c-0.01-0.03-0.03-0.05-0.04-0.08c0.34-0.08,0.7-0.19,1.07-0.33
		c0.36,0.15,0.72,0.26,1.06,0.33C8.38,13.88,8.37,13.91,8.36,13.93 M8.59,13.35c-0.19-0.04-0.38-0.09-0.57-0.15
		c0.12-0.06,0.25-0.13,0.37-0.2s0.24-0.14,0.36-0.22C8.71,12.98,8.66,13.17,8.59,13.35 M8.87,12.05c-0.23,0.17-0.48,0.34-0.75,0.49
		c-0.26,0.15-0.53,0.29-0.8,0.4c-0.27-0.12-0.53-0.25-0.8-0.4c-0.26-0.15-0.51-0.32-0.75-0.49c-0.03-0.29-0.05-0.59-0.05-0.89
		c0-0.3,0.02-0.6,0.05-0.89c0.23-0.17,0.48-0.34,0.75-0.49c0.26-0.15,0.53-0.29,0.8-0.4c0.27,0.11,0.53,0.25,0.8,0.4
		c0.26,0.15,0.51,0.32,0.75,0.49c0.03,0.29,0.05,0.59,0.05,0.89C8.92,11.47,8.91,11.77,8.87,12.05 M9.42,8.88
		c0.57,0,0.98,0.15,1.13,0.42c0.17,0.3,0.06,0.81-0.31,1.37c-0.02,0.02-0.03,0.05-0.05,0.07c-0.24-0.26-0.51-0.51-0.82-0.76
		C9.32,9.59,9.23,9.23,9.13,8.89C9.23,8.89,9.32,8.88,9.42,8.88 M9.44,10.74c0.15,0.14,0.29,0.28,0.42,0.42
		c-0.13,0.14-0.26,0.28-0.42,0.42c0.01-0.14,0.01-0.28,0.01-0.42C9.46,11.02,9.45,10.88,9.44,10.74 M10.55,13.02
		c-0.15,0.27-0.57,0.42-1.13,0.42c-0.09,0-0.19-0.01-0.29-0.01c0.11-0.33,0.19-0.7,0.25-1.09c0.31-0.24,0.58-0.5,0.82-0.76
		c0.02,0.02,0.03,0.05,0.05,0.07C10.61,12.21,10.72,12.72,10.55,13.02"/>
</g>
</svg>
