<?xml version="1.0" encoding="utf-8"?>
<svg version="1.1" xmlns="http://www.w3.org/2000/svg" xmlns:xlink="http://www.w3.org/1999/xlink" x="0px" y="0px"
	 viewBox="0 0 14.66 22.32" style="enable-background:new 0 0 14.66 22.32;" xml:space="preserve">
<g>
	<path d="M12.82,1.06
		c0.21,0.2,0.38,0.38,0.57,0.57c0.06,0.06,0.13,0.13,0.2,0.2v18.65c-0.14,0.14-0.26,0.26-0.39,0.39s-0.25,0.25-0.39,0.39H1.84
		C1.7,21.12,1.57,21,1.45,20.87c-0.12-0.12-0.25-0.25-0.39-0.39V1.84c0.07-0.07,0.13-0.13,0.2-0.2c0.19-0.19,0.37-0.37,0.58-0.57
		H12.82z M13.26,0H1.4C0.85,0.54,0.54,0.85,0,1.4v19.53c0.54,0.54,0.85,0.85,1.4,1.4h11.87c0.54-0.54,0.85-0.85,1.39-1.4V1.4
		C14.11,0.85,13.81,0.54,13.26,0"/>
	<path d="M10.36,12.25l1.23-0.26v-1.65
		l-1.23-0.26c-0.04-0.11-0.08-0.21-0.13-0.31l0.69-1.06L9.8,7.59L8.75,8.27v0c-0.1-0.05-0.2-0.09-0.31-0.13L8.17,6.91H6.49
		L6.22,8.14C6.12,8.18,6.01,8.23,5.91,8.27v0L4.85,7.59L3.74,8.7l0.69,1.06h0c-0.05,0.1-0.09,0.2-0.13,0.31l-1.23,0.26v1.65
		l1.23,0.26c0.04,0.11,0.08,0.21,0.13,0.31h0l-0.69,1.06l1.12,1.12l1.06-0.69v0c0.1,0.05,0.2,0.09,0.31,0.13l0.26,1.23h1.69
		l0.26-1.23c0.11-0.04,0.21-0.08,0.31-0.13l0,0l1.06,0.69l1.12-1.12l-0.69-1.06C10.28,12.46,10.33,12.36,10.36,12.25z"/>
</g>
</svg>
