<?xml version="1.0" encoding="utf-8"?>
<svg version="1.1" id="Layer_1" xmlns="http://www.w3.org/2000/svg" xmlns:xlink="http://www.w3.org/1999/xlink" x="0px" y="0px"
	 viewBox="0 0 11.34 11.34" style="enable-background:new 0 0 11.34 11.34;" xml:space="preserve">
<style type="text/css">
	.st0{clip-path:url(#SVGID_00000017489562302359513130000015118732479442947719_);}
	.st1{clip-path:url(#SVGID_00000016773432110243306940000017494095195181238695_);}
	.st2{clip-path:url(#SVGID_00000075866275342026096680000016861911387950156949_);}
</style>
<g>
	<defs>
		<polyline id="SVGID_1_" points="11.34,0 0,0 0,11.34 11.34,11.34 		"/>
	</defs>
	<clipPath id="SVGID_00000181779659878290371800000011131838799589567416_">
		<use xlink:href="#SVGID_1_"  style="overflow:visible;"/>
	</clipPath>
	<path style="clip-path:url(#SVGID_00000181779659878290371800000011131838799589567416_);" d="M6.38,5.69
		c0,0.26-0.14,0.49-0.36,0.61C5.92,6.37,5.8,6.4,5.67,6.4c-0.13,0-0.25-0.04-0.35-0.1C5.1,6.18,4.96,5.95,4.96,5.69
		c0-0.26,0.14-0.49,0.35-0.61c0.1-0.06,0.23-0.1,0.35-0.1c0.13,0,0.25,0.03,0.35,0.1C6.24,5.2,6.38,5.43,6.38,5.69"/>
	<path style="clip-path:url(#SVGID_00000181779659878290371800000011131838799589567416_);" d="M5.14,6.61L4.25,8.15
		C3.4,7.66,2.83,6.74,2.83,5.69h1.77v0C4.61,6.09,4.82,6.43,5.14,6.61"/>
</g>
<g>
	<defs>
		<rect id="SVGID_00000104677458747550897040000007141654933630674828_" x="4.96" y="4.98" width="1.42" height="1.42"/>
	</defs>
	<clipPath id="SVGID_00000017497019688454883630000002594168281625269409_">
		<use xlink:href="#SVGID_00000104677458747550897040000007141654933630674828_"  style="overflow:visible;"/>
	</clipPath>
	<path style="clip-path:url(#SVGID_00000017497019688454883630000002594168281625269409_);" d="M6.38,5.69
		c0,0.26-0.14,0.49-0.36,0.61C5.92,6.37,5.8,6.4,5.67,6.4c-0.13,0-0.25-0.04-0.35-0.1C5.1,6.18,4.96,5.95,4.96,5.69
		c0-0.26,0.14-0.49,0.35-0.61c0.1-0.06,0.23-0.1,0.35-0.1c0.13,0,0.25,0.03,0.35,0.1C6.24,5.2,6.38,5.43,6.38,5.69"/>
</g>
<g>
	<defs>
		<polyline id="SVGID_00000072237744452221089280000010856990133450839468_" points="11.34,0 0,0 0,11.34 11.34,11.34 		"/>
	</defs>
	<clipPath id="SVGID_00000094593613371677203630000007185306162637125770_">
		<use xlink:href="#SVGID_00000072237744452221089280000010856990133450839468_"  style="overflow:visible;"/>
	</clipPath>
	<path style="clip-path:url(#SVGID_00000094593613371677203630000007185306162637125770_);" d="M5.14,4.77L4.25,3.24
		c0.4-0.23,0.86-0.37,1.34-0.38c0.02,0,0.05,0,0.07,0c0.02,0,0.05,0,0.07,0c0.49,0.01,0.95,0.15,1.35,0.38L6.2,4.77
		C6.04,4.68,5.86,4.63,5.67,4.63C5.48,4.63,5.29,4.68,5.14,4.77"/>
	<path style="clip-path:url(#SVGID_00000094593613371677203630000007185306162637125770_);" d="M8.5,5.69
		c0,1.05-0.57,1.97-1.42,2.46L6.2,6.61c0.32-0.18,0.53-0.53,0.53-0.92v0H8.5z"/>
	<path style="clip-path:url(#SVGID_00000094593613371677203630000007185306162637125770_);" d="M6.38,5.69
		c0,0.26-0.14,0.49-0.36,0.61C5.92,6.37,5.8,6.4,5.67,6.4c-0.13,0-0.25-0.04-0.35-0.1C5.1,6.18,4.96,5.95,4.96,5.69
		c0-0.26,0.14-0.49,0.35-0.61c0.1-0.06,0.23-0.1,0.35-0.1c0.13,0,0.25,0.03,0.35,0.1C6.24,5.2,6.38,5.43,6.38,5.69"/>
	<path style="clip-path:url(#SVGID_00000094593613371677203630000007185306162637125770_);" d="M6.38,5.69
		c0,0.26-0.14,0.49-0.36,0.61C5.92,6.37,5.8,6.4,5.67,6.4c-0.13,0-0.25-0.04-0.35-0.1C5.1,6.18,4.96,5.95,4.96,5.69
		c0-0.26,0.14-0.49,0.35-0.61c0.1-0.06,0.23-0.1,0.35-0.1c0.13,0,0.25,0.03,0.35,0.1C6.24,5.2,6.38,5.43,6.38,5.69"/>
	<path style="clip-path:url(#SVGID_00000094593613371677203630000007185306162637125770_);" d="M2.25,3.22
		c0.99-1.27,2.53-2.08,4.26-2.08s3.27,0.81,4.26,2.08C10.25,1.36,8.54,0,6.51,0S2.77,1.36,2.25,3.22"/>
	<path style="clip-path:url(#SVGID_00000094593613371677203630000007185306162637125770_);" d="M3.22,9.09
		C1.96,8.1,1.14,6.56,1.14,4.83s0.81-3.27,2.08-4.26C1.36,1.09,0,2.8,0,4.83S1.36,8.57,3.22,9.09"/>
	<path style="clip-path:url(#SVGID_00000094593613371677203630000007185306162637125770_);" d="M9.09,8.11
		c-0.99,1.27-2.53,2.08-4.26,2.08S1.56,9.38,0.57,8.11c0.52,1.86,2.23,3.22,4.26,3.22S8.57,9.97,9.09,8.11"/>
	<path style="clip-path:url(#SVGID_00000094593613371677203630000007185306162637125770_);" d="M8.11,2.25
		c1.27,0.99,2.08,2.53,2.08,4.26s-0.81,3.27-2.08,4.26c1.86-0.52,3.22-2.23,3.22-4.26S9.97,2.77,8.11,2.25"/>
</g>
</svg>
