<?xml version="1.0" encoding="utf-8"?>
<svg version="1.1" id="Layer_1" xmlns="http://www.w3.org/2000/svg" xmlns:xlink="http://www.w3.org/1999/xlink" x="0px" y="0px"
	 viewBox="0 0 11.34 11.34" style="enable-background:new 0 0 11.34 11.34;" xml:space="preserve">
<style type="text/css">
	.st0{clip-path:url(#SVGID_00000031203136709780226730000000469734352866205827_);}
</style>
<g>
	<defs>
		<rect id="SVGID_1_" width="11.34" height="11.34"/>
	</defs>
	<clipPath id="SVGID_00000155850452732491424490000011173233707427209370_">
		<use xlink:href="#SVGID_1_"  style="overflow:visible;"/>
	</clipPath>
	<path style="clip-path:url(#SVGID_00000155850452732491424490000011173233707427209370_);" d="M8.64,9.64
		c-0.85,0.64-1.88,0.99-2.97,0.99c-1.09,0-2.12-0.35-2.97-0.99l-0.51,0.51c0.96,0.75,2.17,1.19,3.48,1.19s2.52-0.44,3.48-1.19
		L8.64,9.64z M1.19,2.19C0.45,3.15,0,4.36,0,5.67s0.45,2.52,1.19,3.48L1.7,8.64C1.06,7.79,0.71,6.76,0.71,5.67S1.06,3.55,1.7,2.7
		L1.19,2.19z M5.67,0C4.36,0,3.15,0.44,2.19,1.19L2.7,1.7c0.85-0.64,1.89-0.99,2.97-0.99c1.09,0,2.12,0.35,2.97,0.99l0.51-0.51
		C8.19,0.44,6.98,0,5.67,0 M10.15,2.19L9.64,2.7c0.64,0.85,0.99,1.89,0.99,2.97s-0.35,2.12-0.99,2.97l0.51,0.51
		c0.75-0.96,1.19-2.17,1.19-3.48S10.89,3.15,10.15,2.19"/>
	<polygon style="clip-path:url(#SVGID_00000155850452732491424490000011173233707427209370_);" points="5.42,1.42 5.42,6.42 
		4.16,5.16 4.66,3.66 	"/>
	<polygon style="clip-path:url(#SVGID_00000155850452732491424490000011173233707427209370_);" points="7.18,6.18 6.67,7.68 
		5.92,9.91 5.92,4.92 	"/>
</g>
</svg>
