<?xml version="1.0" encoding="utf-8"?>
<svg version="1.1" id="Layer_1" xmlns="http://www.w3.org/2000/svg" xmlns:xlink="http://www.w3.org/1999/xlink" x="0px" y="0px"
	 viewBox="0 0 11.34 11.34" style="enable-background:new 0 0 11.34 11.34;" xml:space="preserve">
<style type="text/css">
	.st0{clip-path:url(#SVGID_00000183243111560474672940000018099089395410968491_);}
</style>
<g>
	<defs>
		<rect id="SVGID_1_" width="11.34" height="11.34"/>
	</defs>
	<clipPath id="SVGID_00000113353374899796791510000000524660375666267027_">
		<use xlink:href="#SVGID_1_"  style="overflow:visible;"/>
	</clipPath>
	<path style="clip-path:url(#SVGID_00000113353374899796791510000000524660375666267027_);" d="M11.34,4.5
		c-0.01,0.25-0.03,0.5-0.07,0.74c0,0.02-0.01,0.03-0.01,0.05l-0.01,0.05l-0.01,0.05l0,0.02c0,0.01,0,0.02-0.01,0.02l-0.02,0.09
		c0,0.01-0.01,0.03-0.01,0.05L11.2,5.6l-0.02,0.09l-0.02,0.09l-0.01,0.04c0,0.01-0.01,0.03-0.01,0.04l-0.03,0.09
		c0,0.01-0.01,0.03-0.01,0.04l-0.01,0.04l-0.01,0.04l-0.01,0.02l-0.01,0.02C11.04,6.2,11.02,6.26,11,6.31
		c-0.01,0.03-0.02,0.06-0.03,0.09l-0.03,0.09l-0.02,0.04L10.9,6.57l-0.04,0.09c-0.05,0.11-0.1,0.22-0.16,0.33l-0.02,0.04
		c0,0.01-0.01,0.01-0.01,0.02l-0.01,0.02l-0.04,0.08l-0.01,0.02c0,0.01-0.01,0.01-0.01,0.02l-0.02,0.04l-0.02,0.04
		c-0.01,0.01-0.02,0.03-0.02,0.04l-0.05,0.08l-0.01,0.02l-0.01,0.01l-0.01,0.01l-0.02,0.04c-0.02,0.03-0.03,0.05-0.05,0.08
		l-0.05,0.08l-0.03,0.04L10.28,7.7l-0.05,0.07l-0.05,0.07l-0.03,0.04c-0.01,0.01-0.02,0.02-0.03,0.04L10.06,8
		C10.04,8.02,10.02,8.04,10,8.07C9.97,8.12,9.93,8.16,9.89,8.21C9.88,8.22,9.87,8.23,9.86,8.24L9.83,8.28L9.79,8.31
		C9.79,8.32,9.78,8.32,9.78,8.33L9.76,8.34L9.7,8.41L9.68,8.43L9.67,8.44L9.64,8.48L9.6,8.51L9.59,8.53
		C9.58,8.53,9.58,8.54,9.57,8.54L9.51,8.6C9.48,8.63,9.46,8.65,9.44,8.67L9.4,8.7C9.39,8.71,9.38,8.72,9.37,8.73L9.3,8.79
		C9.29,8.8,9.28,8.81,9.27,8.82L9.23,8.85C9.21,8.87,9.19,8.89,9.16,8.91L9.09,8.96L9.05,8.99L9.02,9.02L8.95,9.07L8.87,9.13
		L8.83,9.15C8.82,9.16,8.81,9.17,8.8,9.18L8.72,9.23C8.7,9.25,8.67,9.26,8.65,9.28L8.61,9.31L8.6,9.31L8.59,9.32L8.57,9.33
		L8.49,9.38C8.48,9.39,8.46,9.39,8.45,9.4L8.41,9.42L8.37,9.45c-0.01,0-0.01,0.01-0.02,0.01L8.33,9.47L8.25,9.51L8.23,9.52
		L8.21,9.53L8.17,9.56C8.07,9.61,7.96,9.66,7.85,9.71L7.76,9.75L7.72,9.77L7.68,9.78L7.59,9.82L7.51,9.85L7.47,9.87
		C7.45,9.87,7.44,9.88,7.42,9.88L7.34,9.91C7.32,9.91,7.31,9.92,7.3,9.92L7.25,9.94L7.21,9.95c-0.01,0-0.02,0-0.02,0.01L7.17,9.96
		L7.08,9.99L7.06,10C7.05,10,7.04,10,7.04,10l-0.04,0.01l-0.04,0.01l-0.02,0.01l-0.01,0l-0.01,0l-0.09,0.02
		c-0.02,0-0.03,0.01-0.04,0.01l-0.04,0.01L6.64,10.1l-0.09,0.02c-0.03,0-0.06,0.01-0.09,0.01l-0.09,0.01l-0.02,0l-0.02,0l-0.05,0.01
		l-0.04,0.01c-0.02,0-0.03,0-0.04,0.01L6.1,10.18c-0.02,0-0.03,0-0.05,0.01l-0.04,0l-0.09,0.01c-0.03,0-0.06,0-0.09,0.01
		c-0.03,0-0.06,0-0.09,0c-0.06,0-0.12,0.01-0.18,0l-0.09,0l-0.09,0c-0.06,0-0.12,0-0.18-0.01l-0.09-0.01l-0.02,0
		c-0.01,0-0.02,0-0.02,0l-0.04-0.01l-0.04,0l-0.02,0l-0.02,0l-0.09-0.01l-0.01,0l-0.01,0l-0.02,0l-0.04-0.01l-0.04-0.01l-0.04-0.01
		l-0.04-0.01c-0.02,0-0.03,0-0.04-0.01L4.5,10.11c-0.02,0-0.03-0.01-0.04-0.01l-0.04-0.01l-0.04-0.01l-0.04-0.01
		c-0.46-0.11-0.9-0.3-1.3-0.54c-0.4-0.24-0.77-0.55-1.08-0.89C1.63,8.28,1.37,7.89,1.18,7.47C0.99,7.05,0.86,6.6,0.8,6.14L0.79,6.1
		c0-0.01,0-0.01,0-0.02l0-0.02L0.78,5.97C0.77,5.91,0.77,5.86,0.76,5.8c0-0.06-0.01-0.11-0.01-0.17V5.54c0-0.01,0-0.03,0-0.04
		l0-0.04V5.41l0-0.02c0-0.01,0-0.01,0-0.02l0-0.09L0.77,5.2c0-0.01,0-0.01,0-0.02l0-0.02l0-0.04C0.79,5,0.81,4.89,0.83,4.78
		c0.04-0.22,0.11-0.44,0.19-0.65c0.04-0.1,0.09-0.21,0.14-0.31c0.05-0.1,0.1-0.2,0.16-0.29C1.43,3.35,1.56,3.17,1.71,3
		c0.07-0.08,0.15-0.16,0.23-0.24C2.02,2.69,2.11,2.62,2.2,2.55c0.17-0.14,0.36-0.26,0.55-0.36C2.77,2.18,2.8,2.16,2.82,2.15
		L2.9,2.12l0.07-0.03C3,2.07,3.02,2.06,3.05,2.05c0.1-0.04,0.2-0.08,0.31-0.11C3.56,1.87,3.78,1.82,3.99,1.8
		C4.1,1.78,4.21,1.77,4.32,1.77l0.04,0l0.02,0c0.01,0,0.01,0,0.02,0h0.08l0.08,0c0.01,0,0.01,0,0.02,0l0.02,0l0.04,0
		c0.42,0.02,0.83,0.14,1.2,0.33c0.18,0.1,0.36,0.21,0.52,0.35c0.08,0.07,0.16,0.14,0.23,0.21C6.67,2.74,6.73,2.81,6.8,2.9
		c0.13,0.16,0.24,0.34,0.33,0.52C7.17,3.51,7.2,3.61,7.24,3.7C7.27,3.8,7.3,3.9,7.33,4C7.37,4.19,7.4,4.4,7.4,4.6
		c0,0.01,0,0.02,0,0.04v0.04c0,0.03,0,0.05,0,0.08c0,0.01,0,0.01,0,0.02l0,0.02l0,0.02c0,0.01,0,0.01,0,0.02c0,0.01,0,0.03,0,0.04
		l0,0c0-0.02,0-0.05,0-0.07l0-0.02c0-0.01,0-0.01,0-0.02l0-0.04c0-0.02,0-0.05-0.01-0.07l0-0.02l0-0.02l0-0.04
		c0-0.02-0.01-0.05-0.01-0.07c0-0.02-0.01-0.05-0.01-0.07C7.35,4.41,7.34,4.38,7.34,4.36C7.3,4.17,7.23,3.99,7.15,3.81
		c-0.08-0.18-0.18-0.34-0.3-0.49C6.63,3.01,6.33,2.76,5.99,2.58C5.82,2.49,5.64,2.42,5.46,2.36C5.28,2.31,5.09,2.28,4.9,2.27
		c-0.01,0-0.01,0-0.02,0H4.86l-0.04,0l-0.07,0c-0.01,0-0.01,0-0.02,0H4.72l-0.03,0H4.67l-0.02,0l-0.03,0
		C4.53,2.28,4.44,2.29,4.36,2.3C4.18,2.32,4,2.37,3.84,2.42C3.67,2.48,3.5,2.55,3.35,2.64c-0.16,0.09-0.3,0.19-0.44,0.3
		c-0.27,0.23-0.5,0.5-0.68,0.81C2.06,4.05,1.94,4.39,1.89,4.73C1.87,4.82,1.86,4.91,1.86,4.99c0,0.04,0,0.09-0.01,0.13v0.07l0,0.06
		C1.86,5.42,1.88,5.58,1.9,5.75c0.06,0.33,0.17,0.65,0.32,0.94c0.15,0.29,0.35,0.56,0.59,0.79C3.05,7.7,3.31,7.9,3.61,8.05
		C3.9,8.2,4.21,8.3,4.53,8.36c0.08,0.01,0.16,0.02,0.24,0.03C4.85,8.4,4.93,8.4,5.01,8.4h0.06h0.01c0.01,0,0.01,0,0.02,0l0.03,0
		l0.06,0l0.06,0l0.03,0c0.01,0,0.02,0,0.03,0l0.06,0c0.02,0,0.04,0,0.06-0.01c0.02,0,0.04,0,0.06-0.01c0.31-0.04,0.61-0.11,0.9-0.22
		C6.4,8.15,6.42,8.14,6.44,8.13l0.05-0.02c0.01,0,0.02-0.01,0.03-0.01l0.03-0.01L6.6,8.06l0.05-0.02l0.03-0.01L6.7,8.01l0.05-0.03
		l0.05-0.03l0.03-0.01l0.03-0.01L6.91,7.9l0.05-0.03l0.03-0.01l0.02-0.02l0.05-0.03L7.1,7.78l0.02-0.02
		c0.01-0.01,0.02-0.01,0.02-0.02L7.2,7.71c0.25-0.18,0.48-0.39,0.67-0.63c0.1-0.12,0.19-0.24,0.27-0.37
		c0.04-0.07,0.08-0.13,0.12-0.2c0.02-0.03,0.04-0.07,0.05-0.1c0-0.01,0.01-0.02,0.01-0.03l0.01-0.03l0.01-0.03l0.01-0.01l0.01-0.01
		c0.06-0.14,0.12-0.28,0.17-0.43c0.01-0.02,0.01-0.04,0.02-0.05l0.02-0.06l0.01-0.03l0.01-0.03l0.01-0.06
		C8.6,5.59,8.62,5.51,8.63,5.44C8.64,5.4,8.65,5.36,8.65,5.33c0-0.02,0.01-0.04,0.01-0.06c0-0.02,0.01-0.04,0.01-0.06l0.01-0.06
		c0-0.01,0-0.02,0-0.03l0-0.03l0-0.06l0-0.06c0-0.04,0-0.08,0.01-0.11c0-0.01,0-0.02,0-0.03V4.82V4.79c0-0.01,0-0.02,0-0.03
		c0-0.04,0-0.07,0-0.11l0-0.06c0-0.02,0-0.04,0-0.05C8.66,4.25,8.61,3.96,8.53,3.67C8.49,3.53,8.44,3.4,8.39,3.26
		C8.33,3.12,8.27,2.99,8.2,2.86c-0.14-0.26-0.3-0.5-0.49-0.72c-0.09-0.11-0.19-0.21-0.3-0.32C7.31,1.73,7.2,1.64,7.08,1.55
		C6.85,1.37,6.6,1.22,6.34,1.1C6.08,0.98,5.81,0.88,5.53,0.82C5.39,0.79,5.25,0.76,5.1,0.75C4.96,0.73,4.82,0.72,4.68,0.72l-0.05,0
		H4.6c-0.01,0-0.02,0-0.03,0c-0.03,0-0.07,0-0.1,0l-0.1,0c-0.01,0-0.02,0-0.03,0l-0.03,0l-0.05,0C4.12,0.75,3.98,0.77,3.84,0.79
		C3.57,0.84,3.3,0.91,3.04,1c-0.13,0.05-0.26,0.1-0.38,0.16C2.62,1.18,2.59,1.19,2.56,1.21L2.47,1.26L2.37,1.31
		C2.34,1.32,2.31,1.34,2.28,1.36C2.05,1.5,1.82,1.66,1.61,1.84c-0.1,0.09-0.21,0.18-0.3,0.28c-0.1,0.1-0.19,0.2-0.27,0.31
		C0.86,2.64,0.71,2.87,0.57,3.11C0.51,3.23,0.45,3.35,0.39,3.47C0.34,3.6,0.29,3.73,0.24,3.86C0.15,4.11,0.09,4.38,0.05,4.65
		c-0.02,0.13-0.03,0.27-0.04,0.4l0,0.05l0,0.03c0,0.01,0,0.02,0,0.03l0,0.1c0,0.03,0,0.07,0,0.1c0,0.01,0,0.02,0,0.02l0,0.02l0,0.05
		l0,0.05c0,0.02,0,0.03,0,0.05c0,0.03,0,0.07,0.01,0.1c0.01,0.07,0.01,0.13,0.02,0.2c0.01,0.07,0.02,0.13,0.02,0.2l0.02,0.1l0,0.02
		c0,0.01,0,0.02,0,0.02l0.01,0.05L0.09,6.3L0.1,6.33l0,0.02l0.02,0.1c0.01,0.03,0.01,0.07,0.02,0.1c0,0.02,0.01,0.03,0.01,0.05
		l0.01,0.05l0.01,0.05l0.01,0.02l0.01,0.02l0.03,0.1c0.01,0.03,0.02,0.06,0.03,0.1l0.01,0.02l0,0.01l0,0.01l0.02,0.05
		C0.3,7.09,0.32,7.15,0.35,7.21C0.37,7.28,0.4,7.34,0.42,7.4l0.02,0.04c0,0.01,0.01,0.02,0.01,0.02l0.01,0.02
		C0.48,7.52,0.49,7.55,0.5,7.58l0.04,0.09c0,0.01,0.01,0.01,0.01,0.02l0.01,0.02l0.02,0.04c0.24,0.47,0.55,0.9,0.92,1.28
		c0.37,0.38,0.79,0.7,1.25,0.95c0.46,0.25,0.96,0.43,1.46,0.53l0.05,0.01l0.05,0.01l0.05,0.01c0.02,0,0.03,0.01,0.05,0.01l0.1,0.01
		c0.02,0,0.03,0.01,0.05,0.01l0.05,0.01l0.05,0.01l0.05,0.01l0.05,0l0.02,0l0.01,0l0.01,0l0.1,0.01l0.02,0l0.02,0l0.05,0l0.05,0
		c0.01,0,0.02,0,0.02,0H5.1l0.1,0c0.06,0,0.13,0,0.19,0l0.1,0l0.1,0c0.06,0,0.13-0.01,0.19-0.01c0.03,0,0.06-0.01,0.1-0.01
		c0.03,0,0.06-0.01,0.1-0.01l0.09-0.01l0.05-0.01c0.01,0,0.03,0,0.05-0.01l0.09-0.01c0.02,0,0.03-0.01,0.05-0.01l0.05-0.01
		l0.05-0.01l0.02-0.01l0.02,0l0.09-0.02c0.03-0.01,0.06-0.01,0.09-0.02l0.09-0.02l0.09-0.02l0.05-0.01c0.02,0,0.03-0.01,0.05-0.01
		l0.09-0.03l0.01,0l0.01,0l0.02-0.01l0.05-0.01l0.05-0.01c0.01,0,0.02,0,0.02-0.01l0.02-0.01l0.09-0.03l0.02-0.01
		c0.01,0,0.01-0.01,0.02-0.01l0.04-0.02l0.04-0.02c0.02-0.01,0.03-0.01,0.04-0.02l0.09-0.04c0.02-0.01,0.03-0.01,0.04-0.02
		l0.04-0.02l0.09-0.04l0.09-0.04l0.04-0.02l0.04-0.02l0.09-0.04C8.09,9.92,8.2,9.86,8.31,9.8l0.04-0.02l0.02-0.01l0.02-0.01
		L8.47,9.7l0.02-0.01c0.01,0,0.01-0.01,0.02-0.01l0.04-0.03l0.04-0.03C8.61,9.62,8.62,9.61,8.63,9.6l0.08-0.05l0.02-0.01l0.01-0.01
		l0.01-0.01l0.04-0.03c0.03-0.02,0.05-0.04,0.08-0.06l0.08-0.06c0.01-0.01,0.03-0.02,0.04-0.03l0.04-0.03l0.08-0.06L9.16,9.2
		L9.2,9.17l0.03-0.03l0.07-0.06c0.02-0.02,0.05-0.04,0.07-0.06l0.03-0.03c0.01-0.01,0.02-0.02,0.04-0.03l0.07-0.07
		c0.01-0.01,0.02-0.02,0.03-0.03l0.03-0.03C9.61,8.8,9.63,8.77,9.65,8.75l0.07-0.07c0.01-0.01,0.01-0.01,0.02-0.02l0.02-0.02
		l0.03-0.03l0.03-0.04l0.02-0.02l0.02-0.02L9.9,8.47l0.02-0.02c0.01-0.01,0.01-0.01,0.01-0.02L9.97,8.4L10,8.36
		c0.01-0.01,0.02-0.02,0.03-0.04c0.04-0.05,0.08-0.1,0.12-0.15c0.02-0.02,0.04-0.05,0.06-0.08l0.05-0.08
		c0.01-0.01,0.02-0.03,0.03-0.04l0.03-0.04l0.05-0.08l0.05-0.08l0.03-0.04l0.02-0.04l0.05-0.08c0.02-0.03,0.03-0.05,0.05-0.08
		l0.02-0.04l0.01-0.01l0.01-0.01l0.01-0.02l0.04-0.08c0.01-0.01,0.02-0.03,0.02-0.04l0.02-0.04l0.02-0.04
		c0-0.01,0.01-0.01,0.01-0.02l0.01-0.02l0.04-0.09l0.01-0.02c0-0.01,0.01-0.01,0.01-0.02l0.02-0.04c0.05-0.11,0.1-0.23,0.15-0.35
		l0.03-0.09L11,6.56l0.02-0.04l0.03-0.09c0.01-0.03,0.02-0.06,0.03-0.09c0.02-0.06,0.03-0.12,0.05-0.18l0.01-0.02l0.01-0.02
		l0.01-0.04l0.01-0.04c0-0.02,0.01-0.03,0.01-0.05l0.02-0.09c0-0.02,0.01-0.03,0.01-0.05l0.01-0.05l0.02-0.09l0.02-0.09l0.01-0.05
		c0-0.02,0.01-0.03,0.01-0.05l0.01-0.09c0-0.01,0-0.01,0-0.02l0-0.02l0.01-0.05l0.01-0.05c0-0.01,0-0.03,0.01-0.05
		C11.33,4.99,11.34,4.74,11.34,4.5"/>
</g>
</svg>
