<?xml version="1.0" encoding="utf-8"?>
<svg version="1.1" id="Layer_1" xmlns="http://www.w3.org/2000/svg" xmlns:xlink="http://www.w3.org/1999/xlink" x="0px" y="0px"
	 viewBox="0 0 19.84 19.84" style="enable-background:new 0 0 19.84 19.84;" xml:space="preserve">
<style type="text/css">
	.st0{clip-path:url(#SVGID_00000134248252127903482040000008830694654868614847_);}
</style>
<g>
	<defs>
		<rect id="SVGID_1_" width="19.84" height="19.84"/>
	</defs>
	<clipPath id="SVGID_00000096045006511510717810000003829706386743809723_">
		<use xlink:href="#SVGID_1_"  style="overflow:visible;"/>
	</clipPath>
	<path style="clip-path:url(#SVGID_00000096045006511510717810000003829706386743809723_);" d="M19.5,13.3
		c-0.08,0.47-0.33,0.96-0.74,1.37c-0.85,0.85-2.07,1.02-2.71,0.38c-0.57-0.57-0.5-1.59,0.12-2.41l0,0c0,0,1.32-2.08,0.83-4.63
		C16.98,8,16.97,7.99,16.96,7.98c-0.74-3.2-3.61-5.59-7.05-5.59c-3.32,0-6.12,2.23-6.97,5.26c-0.69,2.71,0.75,4.99,0.75,4.99l0,0
		c0.62,0.82,0.69,1.84,0.12,2.41c-0.64,0.64-1.86,0.47-2.71-0.38c-0.41-0.41-0.66-0.9-0.74-1.37c-0.04-0.16-0.06-0.33-0.05-0.48
		c-1.36,4.76,2.39,7.02,2.39,7.02l0.04-0.21c0.12-0.56,0.57-2.1,2.12-2.7C6,16.5,8.04,16.66,9.07,16.77
		c-0.03-0.01-0.06-0.02-0.09-0.03c0.3,0.04,0.62,0.06,0.93,0.06c0.33,0,0.66-0.02,0.98-0.07c-0.04,0.01-0.07,0.03-0.11,0.04
		c1.03-0.12,3.07-0.27,4.22,0.17c1.55,0.59,2.01,2.14,2.12,2.7l0.04,0.21c0,0,3.76-2.26,2.39-7.02
		C19.56,12.97,19.54,13.14,19.5,13.3 M9.91,14.27c-2.64,0-4.79-2.13-4.79-4.76c0-2.63,2.14-4.76,4.79-4.76
		c2.64,0,4.79,2.13,4.79,4.76C14.69,12.14,12.55,14.27,9.91,14.27"/>
	<path style="clip-path:url(#SVGID_00000096045006511510717810000003829706386743809723_);" d="M9.91,0.86
		c4.76,0,8.7,3.56,9.27,8.14c-0.13-4.98-4.24-9-9.27-9C4.87,0,0.76,4.01,0.63,9C1.21,4.41,5.15,0.86,9.91,0.86"/>
</g>
</svg>
