<?xml version="1.0" encoding="utf-8"?>
<!-- Generator: Adobe Illustrator 28.2.0, SVG Export Plug-In . SVG Version: 6.00 Build 0)  -->
<svg version="1.1" id="Layer_1" xmlns="http://www.w3.org/2000/svg" xmlns:xlink="http://www.w3.org/1999/xlink" x="0px" y="0px"
	 viewBox="0 0 42.52 42.52" style="enable-background:new 0 0 42.52 42.52;" xml:space="preserve">
<style type="text/css">
	.st0{clip-path:url(#SVGID_00000061467252361159694180000000506177312285751740_);}
</style>
<g>
	<defs>
		<rect id="SVGID_1_" width="42.52" height="42.52"/>
	</defs>
	<clipPath id="SVGID_00000034805938474377712230000005313874522100017055_">
		<use xlink:href="#SVGID_1_"  style="overflow:visible;"/>
	</clipPath>
	<path style="clip-path:url(#SVGID_00000034805938474377712230000005313874522100017055_);" d="M38.49,0H4.03L0,4.04v34.45
		l4.03,4.03h34.45l4.04-4.03V4.04L38.49,0z M21.72,11.39c0.11-0.06,2.27-0.76,2.27-0.76s0.11,0.06,0.21,0.11
		c0.09,0.06,0.99,1.96,0.99,1.96s0.08,0.24,0,0.28c-0.08,0.04-2.23,0.58-2.23,0.58s-0.17-0.08-0.28-0.12
		c-0.12-0.04-0.95-1.79-0.95-1.79S21.61,11.45,21.72,11.39 M18.96,12.65c0.13-0.19,1.85-0.97,2.06-0.99
		c0.21-0.02,0.23,0.09,0.23,0.09l1.01,1.98l-1.72,0.51v0.99c0,0-1.49-2.06-1.58-2.26S18.82,12.84,18.96,12.65 M16.48,14.18
		c0.11-0.19,1.45-1.11,1.64-1.14c0.19-0.04,0.39-0.08,0.44,0c0.05,0.08,2.68,4.4,2.68,4.4s-1.98,0.38-2.23,0.5l-2.54-3.41
		C16.48,14.52,16.36,14.37,16.48,14.18 M14.65,16.5c-0.06-0.08-0.08-0.4-0.08-0.4s1.14-1.18,1.32-1.24
		c0.17-0.06,0.36,0.15,0.36,0.15s2.21,2.81,2.31,2.94c0.1,0.13,0,0.28,0,0.28s-0.73,0.59-0.94,0.61c-0.21,0.02-0.32,0-0.32,0
		S14.7,16.58,14.65,16.5 M20.09,20.45v11.44h-0.67l-2.21-3.83l0.37-5.27c-2.51-1.32-2.4-5.09-2.4-5.09l2.13,1.72l2.11-1.2l2.52-0.23
		C20.81,18.51,20.09,20.45,20.09,20.45 M27.82,18.56c-0.29,0.34-3.85,3.2-3.85,3.2l0.59,6.3l-2.2,3.83h-0.77V19.31
		c0,0,0.73-1.43,2.2-1.83l1.79-0.34c0,0-1.16,0.07-1.31-0.38c-0.23-0.73,0.58-1.22,0.58-1.22s-0.28-0.06-0.68,0.34
		c-0.4,0.4-0.21,0.46-0.76,0.52c-0.55,0.06-2.11-0.11-2.39-0.57v-1.2l4.56-1.43c0,0,0.42-0.1,0.95,0.38c0.57,0.52,1.3,4.14,1.3,4.14
		S28.11,18.22,27.82,18.56"/>
</g>
</svg>
