<?xml version="1.0" encoding="utf-8"?>
<svg version="1.1" id="Layer_1" xmlns="http://www.w3.org/2000/svg" xmlns:xlink="http://www.w3.org/1999/xlink" x="0px" y="0px"
	 viewBox="0 0 42.52 42.52" style="enable-background:new 0 0 42.52 42.52;" xml:space="preserve">
<style type="text/css">
	.st0{clip-path:url(#SVGID_00000025418074703666893980000008812123669911237027_);}
</style>
<polygon points="19.53,19.05 17.8,17.36 20.19,17.01 21.26,14.84 22.33,17.01 24.72,17.36 22.99,19.05 23.4,21.43 21.26,20.31 
	19.12,21.43 "/>
<g>
	<defs>
		<rect id="SVGID_1_" width="42.52" height="42.52"/>
	</defs>
	<clipPath id="SVGID_00000042736573043128777200000004919629189437435278_">
		<use xlink:href="#SVGID_1_"  style="overflow:visible;"/>
	</clipPath>
	<path style="clip-path:url(#SVGID_00000042736573043128777200000004919629189437435278_);" d="M28.54,15.51
		c1.51,1.93,2.28,4.47,1.88,7.18c-0.61,4.04-3.84,7.22-7.89,7.76c-0.43,0.06-0.85,0.09-1.27,0.09c-0.42,0-0.84-0.03-1.27-0.09
		c-4.05-0.55-7.28-3.72-7.89-7.76c-0.41-2.72,0.36-5.26,1.88-7.18v6.4l7.27,4.33l0.01-0.01l0.01,0.01l7.27-4.33V15.51z"/>
	<path style="clip-path:url(#SVGID_00000042736573043128777200000004919629189437435278_);" d="M38.48,0H4.03L0,4.04v34.45
		l4.03,4.03h34.45l4.03-4.03V4.04L38.48,0z M21.26,31.89c-5.87,0-10.63-4.76-10.63-10.63c0-5.87,4.76-10.63,10.63-10.63
		c5.87,0,10.63,4.76,10.63,10.63C31.89,27.13,27.13,31.89,21.26,31.89"/>
</g>
</svg>
