<?xml version="1.0" encoding="utf-8"?>
<svg version="1.1" id="Layer_1" xmlns="http://www.w3.org/2000/svg" xmlns:xlink="http://www.w3.org/1999/xlink" x="0px" y="0px"
	 viewBox="0 0 42.52 42.52" style="enable-background:new 0 0 42.52 42.52;" xml:space="preserve">
<style type="text/css">
	.st0{clip-path:url(#SVGID_00000147936948565000780450000017038425989563319170_);}
</style>
<polygon points="18.96,11.96 12.07,23.94 10.52,21.26 15.89,11.96 "/>
<polygon points="14.37,27.94 28.15,27.94 26.63,30.56 15.89,30.56 "/>
<g>
	<defs>
		<rect id="SVGID_1_" width="42.52" height="42.52"/>
	</defs>
	<clipPath id="SVGID_00000142865947607212538840000009537337883504608905_">
		<use xlink:href="#SVGID_1_"  style="overflow:visible;"/>
	</clipPath>
	<path style="clip-path:url(#SVGID_00000142865947607212538840000009537337883504608905_);" d="M22.03,11.96h-1.54l-7.65,13.32
		l0.77,1.33h15.31l0.77-1.33L22.03,11.96z M21.26,23.92c-1.47,0-2.66-1.19-2.66-2.66c0-1.47,1.19-2.66,2.66-2.66
		c1.47,0,2.66,1.19,2.66,2.66C23.92,22.73,22.73,23.92,21.26,23.92"/>
	<polygon style="clip-path:url(#SVGID_00000142865947607212538840000009537337883504608905_);" points="26.63,11.96 32,21.26 
		30.45,23.94 23.57,11.96 	"/>
	<path style="clip-path:url(#SVGID_00000142865947607212538840000009537337883504608905_);" d="M38.48,0H4.03L0,4.04v34.45
		l4.03,4.03h34.45l4.04-4.03V4.04L38.48,0z M27.4,31.89H15.12L8.99,21.26l6.14-10.63H27.4l6.14,10.63L27.4,31.89z"/>
</g>
</svg>
