<?xml version="1.0" encoding="utf-8"?>
<svg version="1.1" id="Layer_1" xmlns="http://www.w3.org/2000/svg" xmlns:xlink="http://www.w3.org/1999/xlink" x="0px" y="0px"
	 viewBox="0 0 42.52 42.52" style="enable-background:new 0 0 42.52 42.52;" xml:space="preserve">
<style type="text/css">
	.st0{clip-path:url(#SVGID_00000111880406716247945970000015248712244163734659_);}
</style>
<g>
	<defs>
		<rect id="SVGID_1_" width="42.52" height="42.52"/>
	</defs>
	<clipPath id="SVGID_00000050661377335391831140000010291430997246451636_">
		<use xlink:href="#SVGID_1_"  style="overflow:visible;"/>
	</clipPath>
	<path style="clip-path:url(#SVGID_00000050661377335391831140000010291430997246451636_);" d="M38.49,0H4.03L0,4.04v34.45
		l4.03,4.04h34.45l4.04-4.04V4.04L38.49,0z M30.64,22.55c0.07,0.12,0.12,0.24,0.18,0.36c0.06,0.12,0.11,0.24,0.16,0.36
		c0.05,0.12,0.09,0.24,0.13,0.35c0.04,0.12,0.08,0.23,0.11,0.35c0.06,0.23,0.1,0.46,0.13,0.67c0.01,0.05,0.01,0.11,0.02,0.16
		c0.01,0.11,0.01,0.21,0.01,0.32c0,0.11-0.01,0.21-0.02,0.31c-0.01,0.05-0.01,0.1-0.02,0.15c-0.03,0.2-0.08,0.4-0.15,0.58
		c-0.05,0.14-0.12,0.28-0.19,0.41c-0.25,0.43-0.61,0.78-1.06,1.05c-0.75,0.45-1.76,0.67-2.92,0.67c-0.1,0-0.19,0-0.29-0.01
		c-0.2-0.01-0.4-0.02-0.6-0.04c-0.1-0.01-0.21-0.02-0.31-0.03c-0.21,0.49-0.45,0.94-0.7,1.35c-0.04,0.06-0.07,0.12-0.11,0.17
		c-0.07,0.11-0.15,0.22-0.23,0.32c-0.85,1.15-1.87,1.82-2.98,1.82c-0.78,0-1.53-0.34-2.2-0.95c-0.6-0.55-1.15-1.32-1.6-2.25
		l-2.31,1.49l-2.82-2.82l0.15-0.23l0.76-1.17l0.82-1.27c-0.12-0.25-0.23-0.51-0.32-0.78l-0.46-0.1l-1.32-0.28l-1.33-0.29v-3.99
		l1.33-0.28l1.32-0.28l0.46-0.1c0.1-0.27,0.2-0.53,0.32-0.78l-0.82-1.27l-0.76-1.17l-0.15-0.23l2.82-2.82l2.31,1.5
		c0.46-0.94,1-1.71,1.6-2.25c0.67-0.61,1.41-0.95,2.2-0.95c1.1,0,2.13,0.67,2.98,1.82c0.08,0.1,0.15,0.21,0.23,0.33
		c0.04,0.06,0.08,0.11,0.11,0.17c0.25,0.41,0.49,0.86,0.7,1.35c0.42-0.05,0.82-0.07,1.2-0.07c1.86,0,3.32,0.57,3.98,1.72
		c0.25,0.43,0.37,0.92,0.38,1.45c0.01,1.16-0.55,2.51-1.55,3.86C30.14,21.69,30.41,22.12,30.64,22.55 M28.94,22.32
		c-0.52,0.57-1.11,1.12-1.77,1.66c-0.1,0.08-0.19,0.15-0.29,0.23c-0.14,0.97-0.35,1.89-0.61,2.72c0.25,0.02,0.49,0.03,0.73,0.03
		c1.24,0,2.18-0.29,2.66-0.82c0.07-0.08,0.13-0.15,0.18-0.24c0.13-0.23,0.2-0.52,0.19-0.84c-0.01-0.71-0.34-1.61-0.97-2.57
		C29.02,22.44,28.98,22.38,28.94,22.32 M27.01,15.56c-0.24,0-0.48,0.01-0.73,0.03c0.26,0.84,0.47,1.75,0.61,2.72
		c0.77,0.61,1.46,1.24,2.05,1.89c0.04-0.06,0.08-0.12,0.12-0.18c0.63-0.95,0.96-1.86,0.97-2.57c0-0.32-0.06-0.61-0.19-0.84
		C29.45,15.94,28.42,15.56,27.01,15.56 M28.11,21.26c-0.32-0.36-0.66-0.71-1.04-1.05c0.02,0.34,0.03,0.7,0.03,1.05
		c0,0.36-0.01,0.71-0.03,1.05C27.45,21.97,27.79,21.62,28.11,21.26 M25.65,19.03c-0.59-0.43-1.21-0.84-1.87-1.22
		c-0.49-0.28-0.99-0.54-1.49-0.78c-0.17-0.08-0.33-0.15-0.5-0.23v8.92c0.67-0.29,1.33-0.63,1.99-1.01c0.66-0.38,1.28-0.79,1.87-1.22
		c0.08-0.72,0.12-1.47,0.12-2.23c0-0.38-0.01-0.76-0.03-1.13C25.72,19.76,25.68,19.39,25.65,19.03 M24.44,16.66
		c0.31,0.18,0.61,0.36,0.9,0.55c-0.11-0.5-0.24-0.97-0.4-1.43c-0.47,0.1-0.95,0.22-1.43,0.37C23.82,16.31,24.13,16.48,24.44,16.66
		 M23.52,26.37c0.49,0.15,0.96,0.28,1.43,0.37c0.15-0.45,0.28-0.93,0.4-1.42c-0.29,0.19-0.59,0.37-0.9,0.55
		C24.13,26.04,23.82,26.21,23.52,26.37 M24.35,14.34c-0.23-0.47-0.49-0.87-0.75-1.21c-0.11-0.14-0.21-0.26-0.32-0.37
		c-0.11-0.11-0.22-0.22-0.33-0.31c-0.22-0.18-0.45-0.31-0.67-0.39c-0.05-0.02-0.11-0.04-0.17-0.05c-0.11-0.03-0.22-0.04-0.33-0.04
		v3.4c0.91-0.36,1.8-0.64,2.66-0.83C24.41,14.47,24.38,14.4,24.35,14.34 M21.78,30.56c0.11,0,0.22-0.01,0.33-0.04
		c0.77-0.19,1.59-1.03,2.24-2.34c0.03-0.06,0.06-0.13,0.09-0.19c-0.86-0.19-1.75-0.47-2.66-0.83V30.56z"/>
</g>
</svg>
